<svg id="svg" version="1.1" viewBox="0 0 300 300" width="300" height="300" xmlns="http://www.w3.org/2000/svg"><svg xmlns="http://www.w3.org/2000/svg"><defs><clipPath id="clip-1"><rect x="0" y="0" transform="scale(0.14648,0.14648)" width="2048" height="2048" fill="none"/></clipPath><linearGradient x1="151.54541" y1="255.76025" x2="148.57617" y2="46.9415" gradientUnits="userSpaceOnUse" id="color-1"><stop offset="0" stop-color="#012a68"/><stop offset="1" stop-color="#014697"/></linearGradient><linearGradient x1="159.37646" y1="243.64307" x2="140.84561" y2="53.75962" gradientUnits="userSpaceOnUse" id="color-2"><stop offset="0" stop-color="#002e69"/><stop offset="1" stop-color="#004c99"/></linearGradient><linearGradient x1="149.99414" y1="110.00786" x2="149.84766" y2="66.65024" gradientUnits="userSpaceOnUse" id="color-3"><stop offset="0" stop-color="#1c7cce"/><stop offset="1" stop-color="#76b1e3"/></linearGradient><linearGradient x1="149.83008" y1="79.25332" x2="149.89307" y2="55.06699" gradientUnits="userSpaceOnUse" id="color-4"><stop offset="0" stop-color="#65aae3"/><stop offset="1" stop-color="#a0cdef"/></linearGradient><linearGradient x1="121.71475" y1="118.60269" x2="123.71162" y2="132.74868" gradientUnits="userSpaceOnUse" id="color-5"><stop offset="0" stop-color="#00183b"/><stop offset="1" stop-color="#003571"/></linearGradient><linearGradient x1="110.18335" y1="187.36084" x2="114.89019" y2="172.75342" gradientUnits="userSpaceOnUse" id="color-6"><stop offset="0" stop-color="#414346"/><stop offset="1" stop-color="#a3a4a4"/></linearGradient><linearGradient x1="146.48438" y1="172.23779" x2="144.07573" y2="184.96289" gradientUnits="userSpaceOnUse" id="color-7"><stop offset="0" stop-color="#6e7076"/><stop offset="1" stop-color="#b3b6b8"/></linearGradient><linearGradient x1="135.40518" y1="119.19302" x2="89.81807" y2="138.19365" gradientUnits="userSpaceOnUse" id="color-8"><stop offset="0" stop-color="#464a50"/><stop offset="1" stop-color="#8f949a"/></linearGradient><linearGradient x1="126.97266" y1="117.21108" x2="126.48135" y2="118.49897" gradientUnits="userSpaceOnUse" id="color-9"><stop offset="0" stop-color="#37393e"/><stop offset="1" stop-color="#585b61"/></linearGradient><linearGradient x1="119.55791" y1="184.91162" x2="119.23418" y2="172.1792" gradientUnits="userSpaceOnUse" id="color-10"><stop offset="0" stop-color="#9fa2a7"/><stop offset="1" stop-color="#c9ccce"/></linearGradient><linearGradient x1="121.096" y1="131.65034" x2="106.73438" y2="166.91748" gradientUnits="userSpaceOnUse" id="color-11"><stop offset="0" stop-color="#d6d6d9"/><stop offset="1" stop-color="#fefdfe"/></linearGradient><linearGradient x1="126.35171" y1="152.7876" x2="124.86313" y2="163.35205" gradientUnits="userSpaceOnUse" id="color-12"><stop offset="0" stop-color="#001333"/><stop offset="1" stop-color="#02498d"/></linearGradient><linearGradient x1="113.74893" y1="121.1395" x2="96.46479" y2="120.12085" gradientUnits="userSpaceOnUse" id="color-13"><stop offset="0" stop-color="#91989e"/><stop offset="1" stop-color="#cbccd2"/></linearGradient><linearGradient x1="123.58638" y1="114.76421" x2="123.30352" y2="118.00239" gradientUnits="userSpaceOnUse" id="color-14"><stop offset="0" stop-color="#93959a"/><stop offset="1" stop-color="#b2b7be"/></linearGradient><linearGradient x1="127.67651" y1="147.96094" x2="123.92739" y2="155.96777" gradientUnits="userSpaceOnUse" id="color-15"><stop offset="0" stop-color="#4b4e54"/><stop offset="1" stop-color="#6c7078"/></linearGradient><linearGradient x1="141.55313" y1="118.0292" x2="143.4709" y2="119.41348" gradientUnits="userSpaceOnUse" id="color-16"><stop offset="0" stop-color="#adb3b9"/><stop offset="1" stop-color="#d8d8db"/></linearGradient><linearGradient x1="126.05889" y1="149.18701" x2="126.03999" y2="150.42041" gradientUnits="userSpaceOnUse" id="color-17"><stop offset="0" stop-color="#7b7e82"/><stop offset="1" stop-color="#9fa2a8"/></linearGradient><linearGradient x1="191.93701" y1="183.66504" x2="188.73193" y2="136.47759" gradientUnits="userSpaceOnUse" id="color-18"><stop offset="0" stop-color="#d2000c"/><stop offset="1" stop-color="#fa0116"/></linearGradient><linearGradient x1="190.86914" y1="181.94531" x2="190.71533" y2="187.29932" gradientUnits="userSpaceOnUse" id="color-19"><stop offset="0" stop-color="#a10001"/><stop offset="1" stop-color="#630100"/></linearGradient><linearGradient x1="161.17969" y1="141.72158" x2="162.11719" y2="141.72759" gradientUnits="userSpaceOnUse" id="color-20"><stop offset="0" stop-color="#f10311"/><stop offset="1" stop-color="#bc0105"/></linearGradient><linearGradient x1="199.03857" y1="121.99658" x2="202.08691" y2="99.46729" gradientUnits="userSpaceOnUse" id="color-21"><stop offset="0" stop-color="#4a0000"/><stop offset="1" stop-color="#ff060e"/></linearGradient><linearGradient x1="174.73975" y1="207.24023" x2="176.1665" y2="196.17334" gradientUnits="userSpaceOnUse" id="color-22"><stop offset="0" stop-color="#d5d4d6"/><stop offset="1" stop-color="#ffffff"/></linearGradient><linearGradient x1="174.18896" y1="199.03711" x2="174.82324" y2="202.27881" gradientUnits="userSpaceOnUse" id="color-23"><stop offset="0" stop-color="#131d2e"/><stop offset="1" stop-color="#041a44"/></linearGradient><linearGradient x1="148.01807" y1="253.27002" x2="151.16455" y2="91.21992" gradientUnits="userSpaceOnUse" id="color-24"><stop offset="0" stop-color="#001a46"/><stop offset="1" stop-color="#013d84"/></linearGradient><linearGradient x1="217.02686" y1="59.34199" x2="160.69043" y2="99.2606" gradientUnits="userSpaceOnUse" id="color-25"><stop offset="0" stop-color="#086cc6"/><stop offset="1" stop-color="#4899ea"/></linearGradient><linearGradient x1="65.8894" y1="83.47075" x2="90.5291" y2="101.04858" gradientUnits="userSpaceOnUse" id="color-26"><stop offset="0" stop-color="#0056ad"/><stop offset="1" stop-color="#308de1"/></linearGradient><linearGradient x1="252.30176" y1="130.71445" x2="255.44385" y2="129.90732" gradientUnits="userSpaceOnUse" id="color-27"><stop offset="0" stop-color="#045bac"/><stop offset="1" stop-color="#2d8fec"/></linearGradient></defs><g clip-path="url(#clip-1)" fill="none" fill-rule="nonzero" stroke="none" stroke-width="1" stroke-linecap="butt" stroke-linejoin="miter" stroke-miterlimit="10" stroke-dasharray="" stroke-dashoffset="0" font-family="none" font-weight="none" font-size="none" text-anchor="none" style="mix-blend-mode: normal"><path d="M109.39995,48.34731c3.74502,-1.72778 9.69141,-3.43374 13.66934,-4.43921c21.41807,-5.52715 44.01519,-4.36714 64.75444,3.32388c3.22705,1.18931 7.76953,3.13022 10.78857,4.7792c3.73828,1.44624 9.55518,5.31826 12.88184,7.58687c18.51123,12.38027 32.76123,30.16157 40.81055,50.92603c9.97412,25.84585 9.27832,54.59458 -1.93799,79.92612c-12.24756,27.76611 -33.25049,47.51221 -61.50439,58.43408c-26.65576,10.26563 -56.29966,9.50098 -82.39043,-2.12402c-26.64697,-11.75391 -47.5686,-33.56396 -58.2063,-60.67529c-10.30049,-26.01709 -9.68467,-55.08691 1.70845,-80.64434c11.29424,-25.41152 33.39727,-47.09971 59.42593,-57.09331z" fill="url(#color-1)"/><path d="M132.95566,48.78853c4.35747,-0.62607 7.91792,-1.08691 12.36138,-1.27764c23.42417,-1.16807 46.5189,5.89409 65.28354,19.96304c2.13574,1.61865 4.2334,3.28623 6.29297,5.00112l0.26953,-0.12319c1.40918,1.16924 2.70557,2.3896 4.07959,3.58374c1.24365,1.07988 2.20605,1.71445 3.30762,2.98535l-0.15967,0.61289c0.36914,0.41777 1.56885,1.84233 1.94092,2.07656c3.76904,4.42705 6.45557,7.70317 9.68994,12.61157c12.10986,18.24141 17.69385,40.0418 15.84814,61.85859c-2.05371,25.51758 -15.15527,51.17871 -34.64355,67.75342c-9.30322,8.07422 -19.99512,14.39209 -31.5542,18.64746c-3.32959,1.23047 -6.28418,1.94971 -9.4248,3.03516c-5.62207,1.08545 -9.32227,2.18994 -15.34277,2.79932c-5.40381,0.5332 -10.05762,0.60059 -15.50845,0.44824c-1.15854,-0.03369 -3.90425,-0.34424 -4.69336,-0.30762c-2.89453,-0.46729 -5.77866,-0.63721 -8.71816,-1.19092c-16.8646,-3.17139 -29.81147,-9.20654 -43.62041,-19.14697c-0.34746,-0.4292 -2.31211,-1.8999 -2.83755,-2.32617c-3.10312,-2.51221 -6.05142,-5.18115 -8.85059,-8.03174c-12.94453,-13.37549 -22.04355,-29.99268 -26.3395,-48.104c-4.83574,-21.67822 -2.18437,-44.35444 7.52153,-64.33213c2.20767,-4.59712 4.14126,-7.75107 6.81899,-12.01597c2.06484,-3.02563 4.27852,-5.94683 6.63325,-8.75288c13.01294,-15.60879 30.29648,-27.08276 49.73276,-33.01582c4.05981,-1.21523 7.76074,-1.98208 11.91284,-2.75142z" fill="#eeeef0"/><path d="M216.89355,72.47505l0.26953,-0.12319c1.40918,1.16924 2.70557,2.3896 4.07959,3.58374c1.24365,1.07988 2.20605,1.71445 3.30762,2.98535l-0.15967,0.61289c-2.04932,-2.24033 -5.19141,-4.96582 -7.49707,-7.05879z" fill="#02509d"/><path d="M62.3502,105.02358l-0.41689,0.08979c-2.6146,4.15635 -4.898,10.83735 -6.571,15.4415c-0.49453,1.36069 -0.83203,3.04702 -1.33564,4.41533c-0.24185,0.65684 -0.23555,1.55332 -0.53364,2.06221l-0.07998,-0.03442c0.26631,-2.08989 1.25039,-4.32026 1.60693,-6.47505c0.13301,-0.80347 0.94189,-2.61899 1.25303,-3.52427c6.40181,-18.19307 17.96938,-34.12485 33.28638,-45.84492c21.48779,-16.62861 47.40601,-23.29087 74.53389,-19.76074c41.32178,5.37729 77.79785,40.59756 83.99414,81.9895c0.16846,1.12002 0.48633,3.09741 0.47021,4.12983c-0.51562,-0.24038 -0.21973,-0.63926 -0.25049,-1.02114c-0.2168,-2.65005 -0.69434,-7.26812 -1.58057,-9.70254c-0.36035,-0.3 -0.1582,-0.23262 -0.62695,-0.2083c-0.19922,0.28535 -0.2959,0.3312 -0.15234,0.76948c0.59912,1.82139 2.2251,11.16592 1.88965,12.5499c0.05859,1.84424 0.2124,3.6501 0.26074,5.5021c0.19922,7.61865 -0.43652,16.63916 -2.36426,24.04102c-0.19482,0.85693 -0.57422,2.69678 -0.88477,3.42627c-0.85254,4.2876 -4.25391,12.39258 -6.1626,16.29785c-11.33789,23.41992 -31.57764,41.32764 -56.20312,49.72998c-24.52881,8.68359 -51.52017,7.13232 -74.89233,-4.30518c-23.50137,-11.48437 -41.84546,-31.03271 -50.33496,-55.93359c-6.47739,-18.68848 -6.93516,-38.9373 -1.30913,-57.89971c1.77773,-5.81558 3.76172,-10.34707 6.40371,-15.73491z" fill="url(#color-2)"/><path d="M62.3502,105.02358l-0.41689,0.08979c-2.6146,4.15635 -4.898,10.83735 -6.571,15.4415c-0.49453,1.36069 -0.83203,3.04702 -1.33564,4.41533c-0.24185,0.65684 -0.23555,1.55332 -0.53364,2.06221l-0.07998,-0.03442c0.26631,-2.08989 1.25039,-4.32026 1.60693,-6.47505c0.13301,-0.80347 0.94189,-2.61899 1.25303,-3.52427c6.40181,-18.19307 17.96938,-34.12485 33.28638,-45.84492c21.48779,-16.62861 47.40601,-23.29087 74.53389,-19.76074c41.32178,5.37729 77.79785,40.59756 83.99414,81.9895c0.16846,1.12002 0.48633,3.09741 0.47021,4.12983c-0.51562,-0.24038 -0.21973,-0.63926 -0.25049,-1.02114c-0.2168,-2.65005 -0.69434,-7.26812 -1.58057,-9.70254c-0.36035,-0.3 -0.1582,-0.23262 -0.62695,-0.2083c-0.19922,0.28535 -0.2959,0.3312 -0.15234,0.76948c0.59912,1.82139 2.2251,11.16592 1.88965,12.5499c0.05859,1.84424 0.2124,3.6501 0.26074,5.5021c0.19922,7.61865 -0.43652,16.63916 -2.36426,24.04102c-0.36475,-0.70166 0.78223,-6.05859 1.09424,-7.1748c0.33984,-1.22168 0.08496,-0.30762 -0.04102,-1.57617c-0.01172,-0.11572 0.62109,-0.75879 0.55957,-1.23926c-0.08789,-0.69141 -0.30908,-0.6665 -0.27686,-1.39014c1.15869,-1.54248 0.04541,-1.88232 0.49951,-3.22998c0.86865,-2.57666 0.08203,-17.33716 -0.59619,-20.50459l-0.34863,0.13286c-1.8208,-14.11875 -9.5625,-30.96167 -17.97949,-42.34277c-2.50635,-3.39009 -7.20996,-9.03721 -10.46924,-11.58867l-0.1626,0.05244c0.34717,0.65083 4.72266,4.87793 5.56494,5.92075c2.10645,2.60596 4.05469,5.05825 5.7876,7.97476c0.27539,0.46362 1.51465,1.81245 1.53809,2.21719l-0.0498,-0.20552l-0.29883,0.07471c-0.66943,-0.49131 -2.60596,-3.26294 -3.20215,-4.09731c-14.92676,-20.94111 -39.15234,-35.84282 -64.75195,-39.01626c-19.57339,-2.42607 -40.48169,1.15957 -57.91392,10.60386c-3.94731,2.13853 -7.76924,5.09795 -11.59043,7.47832c-2.41099,1.50176 -4.68135,4.21348 -6.92769,5.75684c-2.11523,1.79854 -3.53569,3.42554 -5.43838,5.32793c-2.39868,2.34258 -4.67402,4.92422 -6.6583,7.62114c-0.16494,0.22427 -0.28667,0.271 -0.53774,0.33105l-0.18281,-0.1793c0.1749,-1.14668 1.25098,-1.38516 1.70684,-2.37026l-0.10664,-0.14443c-0.73521,0.13564 -2.46504,2.78862 -3.03325,3.5127c-5.20972,6.63911 -9.33823,13.89756 -12.56982,21.69229c-0.72275,1.79282 -1.39438,3.60586 -2.01401,5.43677c-0.27817,0.80991 -0.94834,2.90098 -1.30869,3.54932l-0.00835,-0.07412c-2.00024,5.21455 -2.59365,10.48096 -3.35024,15.99023c-0.08276,0.60352 0.37236,1.22827 0.27861,2.03232c-0.04043,-0.26938 -0.07588,-0.53965 -0.10605,-0.8105l-0.21021,-0.00571c-0.42568,1.7981 -0.17446,4.56299 -0.26689,6.42275c-0.41294,8.30449 0.79219,16.71123 2.7939,24.75615c0.098,0.39404 0.81943,3.31494 0.87935,3.42773l0.22529,-0.08203l-0.22134,0.07471l0.3041,-0.1333c-0.02549,0.40576 0.00073,0.27246 -0.13901,0.64453c0.50962,1.95996 1.30518,3.30908 2.10249,5.12988c0.38335,0.87451 0.14253,1.43848 0.73301,2.64551c1.70479,3.48486 3.11235,7.11182 4.91279,10.56885c1.79736,3.45264 3.97236,6.56543 6.17593,9.76172c0.76626,1.12207 1.19077,2.58984 2.1167,3.01465c0.47593,0.21826 0.95654,1.6084 1.34326,2.05811c0.65435,0.76025 2.26802,1.87207 2.75991,2.64551l-0.16274,0.26953c1.57632,1.62598 3.25298,3.22852 4.87002,4.81641c1.30913,1.28467 2.66616,2.84326 4.02598,4.02539c10.54526,9.16846 22.73599,16.25244 36.21138,20.0918c0.946,0.26953 1.80425,0.95508 2.74834,1.23486c4.82197,0.82324 9.32827,2.47705 14.26274,2.81543c0.57554,0.03955 1.0604,0.30762 1.62026,0.375c1.6563,-0.27246 3.25737,0.16553 4.90811,0.25342c21.62446,1.13965 42.49849,-5.13867 60.58198,-16.83545c2.07275,-1.34033 4.22021,-3.14941 6.20361,-4.65674c1.96289,-1.6084 3.76904,-3.28271 5.80371,-4.80176c0.16553,-0.74121 5.5752,-5.83887 6.62549,-7.03857c7.87793,-8.99854 13.76074,-19.12646 17.95605,-30.32666c0.74268,-1.98193 2.02002,-5.13281 2.52539,-7.23926l0.31934,-0.24756c-0.85254,4.2876 -4.25391,12.39258 -6.1626,16.29785c-11.33789,23.41992 -31.57764,41.32764 -56.20312,49.72998c-24.52881,8.68359 -51.52017,7.13232 -74.89233,-4.30518c-23.50137,-11.48437 -41.84546,-31.03271 -50.33496,-55.93359c-6.47739,-18.68848 -6.93516,-38.9373 -1.30913,-57.89971c1.77773,-5.81558 3.76172,-10.34707 6.40371,-15.73491z" fill="#02122d"/><path d="M62.3502,105.02358l-0.41689,0.08979c-2.6146,4.15635 -4.898,10.83735 -6.571,15.4415c-0.49453,1.36069 -0.83203,3.04702 -1.33564,4.41533c-0.24185,0.65684 -0.23555,1.55332 -0.53364,2.06221l-0.07998,-0.03442c0.26631,-2.08989 1.25039,-4.32026 1.60693,-6.47505c0.13301,-0.80347 0.94189,-2.61899 1.25303,-3.52427c6.40181,-18.19307 17.96938,-34.12485 33.28638,-45.84492c21.48779,-16.62861 47.40601,-23.29087 74.53389,-19.76074c41.32178,5.37729 77.79785,40.59756 83.99414,81.9895c0.16846,1.12002 0.48633,3.09741 0.47021,4.12983c-0.51562,-0.24038 -0.21973,-0.63926 -0.25049,-1.02114c-0.2168,-2.65005 -0.69434,-7.26812 -1.58057,-9.70254c-0.36035,-0.3 -0.1582,-0.23262 -0.62695,-0.2083c-0.19922,0.28535 -0.2959,0.3312 -0.15234,0.76948c0.59912,1.82139 2.2251,11.16592 1.88965,12.5499c-0.1875,-0.56367 -0.42187,-3.15117 -0.51855,-3.8855c-0.28418,-2.16313 -0.57129,-4.26694 -1.01514,-6.41118c-5.57666,-25.69233 -21.12598,-48.11909 -43.23193,-62.35063c-21.60205,-14.16504 -47.98096,-19.08003 -73.23589,-13.64546c-23.21587,4.98999 -43.87866,18.1251 -58.24966,37.02876c-2.32983,3.05625 -4.48213,6.2439 -6.44634,9.54712c-0.76465,1.27017 -1.94619,3.5833 -2.66045,4.65088z" fill="#a2a9b4"/><path d="M80.73018,82.61704c-0.10737,-0.00205 -0.94893,-0.00015 -1.02422,0.03794c-0.43008,0.21694 -0.53438,0.57495 -1.02144,0.52046c0.1752,-1.0314 9.3772,-9.11323 10.57705,-9.82207l0.09229,0.19219c-0.6416,1.19648 -2.29951,2.24927 -3.1853,3.74355c-2.11523,1.79854 -3.53569,3.42554 -5.43838,5.32793z" fill="#042a61"/><path d="M210.26807,73.05659c1.25537,0.86279 3.78223,3.14121 5.00684,4.19517c-0.23291,-0.00703 -0.89941,-0.02095 -1.05615,-0.13286c-1.32422,-0.94526 -3.26514,-2.62471 -3.95068,-4.0623z" fill="#042a61"/><path d="M146.9165,53.53389c-0.43066,0.09536 -4.90635,0.28726 -5.17236,0.12847c7.27441,-0.71807 14.96777,-0.66328 22.18652,0.61553c0.76758,0.39741 3.92285,0.5061 4.9292,0.82515c4.04883,1.28232 8.38037,2.14263 12.33984,3.68145l-0.07324,0.10708l-0.42334,0.0145c0.36768,0.24858 1.18213,0.66079 1.35205,1.0021l-0.34863,0.21709c0.90674,0.15806 1.73438,0.8688 2.4375,0.91494c-0.01611,-0.14297 -0.03223,-0.28594 -0.0498,-0.42891c1.11621,-0.13711 2.43164,1.23853 3.11719,1.43994c3.66064,1.07798 6.45117,2.61855 9.58887,4.82578c1.45166,1.02202 3.41016,1.83398 4.83984,2.96147c3.8584,3.05669 9.15088,7.92979 10.22754,12.87598c0.46875,2.1542 0.06885,8.90024 -0.63281,11.14336c-0.45557,1.45591 -2.07422,4.52124 -2.23389,6.24302c2.25293,0.10576 4.4502,-0.06753 6.61523,0.05566c0.17871,0.20991 0.1333,0.10884 0.1875,0.2751l-2.26025,-0.00381c-9.22559,0.11104 -19.55273,0.0876 -28.74316,-0.08159c-2.53857,0.10723 -5.4917,0.04072 -8.06543,0.03896c-5.44922,-0.03398 -10.89697,-0.01289 -16.34619,0.06328c-1.08545,0.16436 -0.75732,1.82021 -0.73682,2.7646l0.00879,3.06064c-0.04395,0.22676 -0.09082,0.42568 -0.11426,0.65522l-0.15967,0.08774c-0.01318,-0.31743 0.03223,-0.65361 -0.11426,-0.87158c-0.69287,0.77065 -0.88037,1.81655 -0.96533,2.82451l0.07324,0.14473c0.0835,2.03203 -0.271,4.10713 0.07031,6.01201l-0.11865,0.25386l-0.13916,-0.04585c-0.03809,-0.47827 -0.04395,-1.13643 -0.24316,-1.54292l-0.18896,0.06152l-0.1084,0.31128c0.23584,0.36899 0.34717,1.05381 0.44971,1.50103l-0.12891,0.04731c-0.2959,-0.34116 -0.20361,-0.29722 -0.26807,-0.8291c-0.05566,0.55664 0.06006,0.72686 0.10254,1.25083c0.05713,0.68672 -0.34131,1.48184 -0.17725,2.14702l-0.1333,0.20273c0.52441,1.85039 -0.89795,22.19956 -2.04492,23.56611l-0.18896,-0.01509c-0.55957,-1.04487 -0.67236,-2.07891 -1.13672,-2.95474c-0.53613,-1.00913 -0.86426,-0.35054 -1.45312,-1.72969c-0.19629,5.12373 -0.09375,10.28511 -0.13184,15.4062c-0.00879,1.25391 0.08936,6.40576 -0.15381,7.28906l-0.03076,12.64453c0.01758,0.56689 0.05127,2.6543 0.13037,3.07471c0.07764,0.38232 0.05127,0.20215 -0.11572,0.65332c-1.01074,0.88477 -1.99365,1.45459 -3.07617,2.21777c-7.50205,5.35547 -16.30415,8.60156 -25.48799,9.39697c-2.57271,0.2124 -5.94214,0.10107 -8.62603,-0.00293c-6.77109,-0.26221 -13.54248,-2.47852 -19.39775,-5.82861c-2.50239,-1.43115 -5.72227,-4.24951 -7.84087,-6.20215c-2.01108,-1.85303 -3.31348,-3.73828 -5.12065,-5.68359c-0.00088,-0.32227 -0.00557,-0.22852 0.01011,-0.47021l0.01084,-0.14941c-1.50864,-1.79883 -2.58882,-3.63428 -3.68701,-5.69531l-0.11792,0.2417l-0.00308,-0.12158c0.20449,0.56543 0.56294,1.05908 0.56704,1.5791c-0.03721,-0.03662 -0.07456,-0.07324 -0.11191,-0.1084c-3.20493,-5.25 -4.95938,-11.36133 -5.67627,-17.43164c-0.17373,-1.47217 0.04673,-2.63042 0.12598,-3.82603l-0.07339,0.1626l0.06738,-0.13784l-0.0252,0.14019c0.1481,-0.15352 0.20874,-0.5688 0.27451,-0.81973l0.17915,0.12729c-0.02783,-1.0002 -0.0394,-1.61924 0.04556,-2.61284l-0.0293,-0.98276c-0.68965,-0.80435 -0.42905,-2.17295 -0.31172,-3.11294c1.04106,-8.33687 3.93062,-15.50083 8.94478,-22.23779c1.43452,-2.05591 5.32632,-5.9814 7.48096,-7.36011l0.20552,0.10005c2.33525,-1.71284 4.0541,-2.52056 6.18882,-3.97866c-0.51665,-0.04687 -1.07021,0.27041 -1.60063,0.48677c-0.2543,-0.68628 -0.89502,-1.78799 -1.28423,-2.44014c-1.85654,-3.11118 -3.098,-6.50962 -3.20479,-10.1584c-0.03618,-1.24014 -0.16538,-5.04272 0.41895,-6.08071c0.93311,-5.41362 4.99629,-11.54941 9.28184,-14.89248c1.17891,-1.14302 3.28872,-2.59072 4.69102,-3.50566c7.11562,-4.64253 14.86816,-7.54365 23.07202,-9.6498c2.23726,-0.57437 4.61367,-0.88389 6.8146,-1.44126l0.09917,-0.00601c0.52764,-0.68027 1.60005,-0.41074 2.34829,-0.47314c1.05146,-0.0876 0.32051,-0.2666 0.8603,-0.85225c0.50654,-0.06401 0.27803,-0.10605 0.71602,0.08892c0.09902,0.44048 0.00923,0.29956 0.29297,0.60981c0.38335,-0.01333 0.3561,-0.01216 0.69316,-0.1998l-0.15791,-0.48882l0.14604,-0.16274c2.1769,-0.12993 4.13877,-0.81445 6.4853,-0.77021l0.22412,0.00513z" fill="#eeeef0"/><path d="M146.9165,53.53389c-0.43066,0.09536 -4.90635,0.28726 -5.17236,0.12847c7.27441,-0.71807 14.96777,-0.66328 22.18652,0.61553c0.76758,0.39741 3.92285,0.5061 4.9292,0.82515c4.04883,1.28232 8.38037,2.14263 12.33984,3.68145l-0.07324,0.10708l-0.42334,0.0145c0.36768,0.24858 1.18213,0.66079 1.35205,1.0021l-0.34863,0.21709c0.90674,0.15806 1.73438,0.8688 2.4375,0.91494c-0.01611,-0.14297 -0.03223,-0.28594 -0.0498,-0.42891c1.11621,-0.13711 2.43164,1.23853 3.11719,1.43994c3.66064,1.07798 6.45117,2.61855 9.58887,4.82578c1.45166,1.02202 3.41016,1.83398 4.83984,2.96147c3.8584,3.05669 9.15088,7.92979 10.22754,12.87598c0.46875,2.1542 0.06885,8.90024 -0.63281,11.14336c-0.45557,1.45591 -2.07422,4.52124 -2.23389,6.24302c2.25293,0.10576 4.4502,-0.06753 6.61523,0.05566c0.17871,0.20991 0.1333,0.10884 0.1875,0.2751l-2.26025,-0.00381c-9.22559,0.11104 -19.55273,0.0876 -28.74316,-0.08159c-2.53857,0.10723 -5.4917,0.04072 -8.06543,0.03896c-5.44922,-0.03398 -10.89697,-0.01289 -16.34619,0.06328c-1.08545,0.16436 -0.75732,1.82021 -0.73682,2.7646c-0.21387,0.3627 -0.07324,0.31904 -0.41748,0.46758c-0.89795,0.38555 -1.22021,1.69043 -1.73584,2.27607l-0.20654,-0.07749c0.32959,-1.37886 0.94482,-1.67725 1.99658,-2.54341c-0.00732,-0.1396 -0.01465,-0.2792 -0.02197,-0.4188c-1.3418,0.03867 -4.57031,3.27012 -5.33936,4.24175c-1.01074,1.2769 -4.39893,1.43701 -4.59521,1.79795c0.59473,2.15933 1.69775,2.31782 1.35498,4.88584c-0.10254,0.03853 -0.271,0.11045 -0.37061,0.12788c-0.00439,-0.89224 -0.01758,-1.78447 -0.03809,-2.67656c-0.50537,-0.64043 -2.729,-2.53418 -3.51562,-3.23804c-6.58813,-4.89785 -11.4041,-7.10391 -19.45635,-8.6499c-5.23213,-0.71118 -9.62036,-0.97617 -14.9562,-0.39053c-1.69219,0.18574 -4.74111,1.02041 -5.98623,1.1146c-1.97153,0.58462 -3.54038,1.05981 -5.45947,1.81187c-0.75176,0.29458 -3.5647,1.57617 -4.01748,1.67974c-0.51665,-0.04687 -1.07021,0.27041 -1.60063,0.48677c-0.2543,-0.68628 -0.89502,-1.78799 -1.28423,-2.44014c-1.85654,-3.11118 -3.098,-6.50962 -3.20479,-10.1584c-0.03618,-1.24014 -0.16538,-5.04272 0.41895,-6.08071c0.93311,-5.41362 4.99629,-11.54941 9.28184,-14.89248c1.17891,-1.14302 3.28872,-2.59072 4.69102,-3.50566c7.11562,-4.64253 14.86816,-7.54365 23.07202,-9.6498c2.23726,-0.57437 4.61367,-0.88389 6.8146,-1.44126l0.09917,-0.00601c0.52764,-0.68027 1.60005,-0.41074 2.34829,-0.47314c1.05146,-0.0876 0.32051,-0.2666 0.8603,-0.85225c0.50654,-0.06401 0.27803,-0.10605 0.71602,0.08892c0.09902,0.44048 0.00923,0.29956 0.29297,0.60981c0.38335,-0.01333 0.3561,-0.01216 0.69316,-0.1998l-0.15791,-0.48882l0.14604,-0.16274c2.1769,-0.12993 4.13877,-0.81445 6.4853,-0.77021l0.22412,0.00513z" fill="url(#color-3)"/><path d="M146.9165,53.53389c-0.43066,0.09536 -4.90635,0.28726 -5.17236,0.12847c7.27441,-0.71807 14.96777,-0.66328 22.18652,0.61553c0.76758,0.39741 3.92285,0.5061 4.9292,0.82515c4.04883,1.28232 8.38037,2.14263 12.33984,3.68145l-0.07324,0.10708l-0.42334,0.0145c0.36768,0.24858 1.18213,0.66079 1.35205,1.0021l-0.34863,0.21709c0.90674,0.15806 1.73438,0.8688 2.4375,0.91494c-0.01611,-0.14297 -0.03223,-0.28594 -0.0498,-0.42891c1.11621,-0.13711 2.43164,1.23853 3.11719,1.43994c3.66064,1.07798 6.45117,2.61855 9.58887,4.82578c1.45166,1.02202 3.41016,1.83398 4.83984,2.96147c3.8584,3.05669 9.15088,7.92979 10.22754,12.87598c0.46875,2.1542 0.06885,8.90024 -0.63281,11.14336c-0.45557,1.45591 -2.07422,4.52124 -2.23389,6.24302c2.25293,0.10576 4.4502,-0.06753 6.61523,0.05566c0.17871,0.20991 0.1333,0.10884 0.1875,0.2751l-2.26025,-0.00381c-0.54639,-0.17915 -5.19141,-0.12583 -6.104,-0.12803c1.08838,-4.35703 2.42725,-8.279 1.64648,-13.03022c-0.55664,-4.20469 -1.65381,-7.72397 -4.23047,-11.13999c-1.42236,-1.88481 -3.5127,-4.40112 -5.4873,-5.75552c-1.38135,-0.05728 -3.33545,-2.65532 -4.06494,-2.46006c-4.32568,1.15752 -7.7915,4.61616 -12.42334,5.30845c-0.71777,0.30894 -1.396,0.70356 -2.09766,1.04824c-2.8623,1.4061 -6.30176,1.91294 -9.44824,2.3502c-2.48145,0.34497 -4.85156,1.05586 -7.3916,1.23589c-2.32471,0.16479 -4.63037,0.32329 -6.95801,0.44194c-9.67969,1.71504 -18.76333,0.62505 -28.32114,-1.28833c-4.46851,-0.6104 -8.69326,-1.21304 -12.70547,-3.45132c-0.69565,-0.38818 -1.91484,-0.95186 -2.55645,-1.47056c-1.50601,-1.21772 -5.09531,-5.51133 -7.08516,-5.26274c-0.98364,0.1229 -4.80718,3.72114 -5.81807,3.71089c1.17891,-1.14302 3.28872,-2.59072 4.69102,-3.50566c7.11562,-4.64253 14.86816,-7.54365 23.07202,-9.6498c2.23726,-0.57437 4.61367,-0.88389 6.8146,-1.44126l0.09917,-0.00601c0.52764,-0.68027 1.60005,-0.41074 2.34829,-0.47314c1.05146,-0.0876 0.32051,-0.2666 0.8603,-0.85225c0.50654,-0.06401 0.27803,-0.10605 0.71602,0.08892c0.09902,0.44048 0.00923,0.29956 0.29297,0.60981c0.38335,-0.01333 0.3561,-0.01216 0.69316,-0.1998l-0.15791,-0.48882l0.14604,-0.16274c2.1769,-0.12993 4.13877,-0.81445 6.4853,-0.77021l0.22412,0.00513z" fill="url(#color-4)"/><path d="M146.9165,53.53389c-0.43066,0.09536 -4.90635,0.28726 -5.17236,0.12847c7.27441,-0.71807 14.96777,-0.66328 22.18652,0.61553c0.76758,0.39741 3.92285,0.5061 4.9292,0.82515c4.04883,1.28232 8.38037,2.14263 12.33984,3.68145l-0.07324,0.10708l-0.42334,0.0145c0.36768,0.24858 1.18213,0.66079 1.35205,1.0021l-0.34863,0.21709c0.90674,0.15806 1.73438,0.8688 2.4375,0.91494c-0.01611,-0.14297 -0.03223,-0.28594 -0.0498,-0.42891c1.11621,-0.13711 2.43164,1.23853 3.11719,1.43994c3.66064,1.07798 6.45117,2.61855 9.58887,4.82578c1.45166,1.02202 3.41016,1.83398 4.83984,2.96147c3.8584,3.05669 9.15088,7.92979 10.22754,12.87598c0.46875,2.1542 0.06885,8.90024 -0.63281,11.14336c-0.45557,1.45591 -2.07422,4.52124 -2.23389,6.24302c2.25293,0.10576 4.4502,-0.06753 6.61523,0.05566c0.17871,0.20991 0.1333,0.10884 0.1875,0.2751l-2.26025,-0.00381c-0.54639,-0.17915 -5.19141,-0.12583 -6.104,-0.12803c1.08838,-4.35703 2.42725,-8.279 1.64648,-13.03022c-0.55664,-4.20469 -1.65381,-7.72397 -4.23047,-11.13999c-1.42236,-1.88481 -3.5127,-4.40112 -5.4873,-5.75552c-0.37354,-0.37632 -0.87598,-0.79966 -1.30664,-1.11826c-14.46094,-10.70361 -32.896,-14.80986 -50.65283,-14.40322c-4.07153,0.09331 -8.20459,0.58945 -12.23379,1.08135c0.52764,-0.68027 1.60005,-0.41074 2.34829,-0.47314c1.05146,-0.0876 0.32051,-0.2666 0.8603,-0.85225c0.50654,-0.06401 0.27803,-0.10605 0.71602,0.08892c0.09902,0.44048 0.00923,0.29956 0.29297,0.60981c0.38335,-0.01333 0.3561,-0.01216 0.69316,-0.1998l-0.15791,-0.48882l0.14604,-0.16274c2.1769,-0.12993 4.13877,-0.81445 6.4853,-0.77021l0.22412,0.00513z" fill="#02509d"/><path d="M209.08594,87.26953c0.78076,4.75122 -0.55811,8.67319 -1.64648,13.03022c0.9126,0.0022 5.55762,-0.05112 6.104,0.12803c-9.22559,0.11104 -19.55273,0.0876 -28.74316,-0.08159c2.03027,-0.5644 10.06201,0.0123 12.71631,-0.2874c2.37305,-0.26836 5.7876,-3.34321 8.27783,-4.07944c0.42041,-0.19409 2.57666,-1.24395 2.75244,-1.56533c0.92725,-1.69541 -0.09814,-5.74878 0.53906,-7.14448z" fill="#1163ba"/><path d="M95.28633,104.10835c-0.2543,-0.68628 -0.89502,-1.78799 -1.28423,-2.44014c-1.85654,-3.11118 -3.098,-6.50962 -3.20479,-10.1584c-0.03618,-1.24014 -0.16538,-5.04272 0.41895,-6.08071l0.11455,0.23379l-0.03486,0.25488c-0.34189,2.59043 -0.46831,7.59697 0.5001,9.94409c0.1563,0.37866 7.79941,5.26919 8.73442,5.58164c0.88154,0.29473 4.21641,-1.58262 5.83345,-1.31353c-1.97153,0.58462 -3.54038,1.05981 -5.45947,1.81187c-0.75176,0.29458 -3.5647,1.57617 -4.01748,1.67974c-0.51665,-0.04687 -1.07021,0.27041 -1.60063,0.48677z" fill="#1163ba"/><path d="M127.30635,99.40591c2.95547,-1.14946 19.10962,6.2688 19.45635,8.6499c-6.58813,-4.89785 -11.4041,-7.10391 -19.45635,-8.6499z" fill="#1163ba"/><path d="M150.31641,113.97041c0.09961,-0.01743 0.26807,-0.08936 0.37061,-0.12788c0.34277,-2.56802 -0.76025,-2.72651 -1.35498,-4.88584c0.19629,-0.36094 3.58447,-0.52104 4.59521,-1.79795c0.76904,-0.97163 3.99756,-4.20308 5.33936,-4.24175c0.00732,0.1396 0.01465,0.2792 0.02197,0.4188c-1.05176,0.86616 -1.66699,1.16455 -1.99658,2.54341l0.20654,0.07749c0.51563,-0.58564 0.83789,-1.89053 1.73584,-2.27607c0.34424,-0.14854 0.20361,-0.10488 0.41748,-0.46758l0.00879,3.06064c-0.04395,0.22676 -0.09082,0.42568 -0.11426,0.65522l-0.15967,0.08774c-0.01318,-0.31743 0.03223,-0.65361 -0.11426,-0.87158c-0.69287,0.77065 -0.88037,1.81655 -0.96533,2.82451l0.07324,0.14473c0.0835,2.03203 -0.271,4.10713 0.07031,6.01201l-0.11865,0.25386l-0.13916,-0.04585c-0.03809,-0.47827 -0.04395,-1.13643 -0.24316,-1.54292l-0.18896,0.06152l-0.1084,0.31128c0.23584,0.36899 0.34717,1.05381 0.44971,1.50103l-0.12891,0.04731c-0.2959,-0.34116 -0.20361,-0.29722 -0.26807,-0.8291c-0.05566,0.55664 0.06006,0.72686 0.10254,1.25083c0.05713,0.68672 -0.34131,1.48184 -0.17725,2.14702l-0.1333,0.20273c0.52441,1.85039 -0.89795,22.19956 -2.04492,23.56611l-0.18896,-0.01509c-0.55957,-1.04487 -0.67236,-2.07891 -1.13672,-2.95474c-0.53613,-1.00913 -0.86426,-0.35054 -1.45312,-1.72969c-0.19629,5.12373 -0.09375,10.28511 -0.13184,15.4062c-0.00879,1.25391 0.08936,6.40576 -0.15381,7.28906c-0.23584,-8.1123 -0.00732,-17.38711 0.00439,-25.58833l-27.45542,0.00762c-1.18433,0.00059 -8.01768,-0.13345 -8.67554,0.06387c-0.35859,0.44971 -0.23818,0.42305 -0.27861,1.13481l0.02402,12.03633c-0.02344,1.56152 -0.21841,3.07324 0.43521,4.51465l-0.17798,0.21826c0.67061,1.32568 0.91714,2.33203 1.45796,3.68848c0.02446,0.06006 0.72817,0.48486 0.86689,0.56689c0.15527,0.2666 0.16465,0.22412 0.23408,0.5127c1.17246,0.20215 2.23257,-0.43799 2.8103,-0.32373c3.12964,0.61816 9.33882,0.6665 11.74248,2.60889c0.01685,1.10889 0.1938,3.24023 -0.32432,4.12646c-0.92534,0.59619 -1.67783,0.37939 -2.11128,1.74609c-3.59985,1.44434 -8.72871,2.96631 -12.65786,2.51367c-0.49995,-0.15088 -2.21572,-0.30029 -2.85557,-0.41162c-1.31602,-0.22998 -2.62061,-0.49512 -3.93208,-0.73389l-0.05273,0.35303c-5.2459,-1.58057 -10.95234,-4.82227 -13.65718,-9.77344c0.08906,-0.60059 0.12305,-0.30908 -0.16743,-0.89502l-0.15981,-0.02197c-0.60088,-0.66943 -1.41182,-2.7876 -1.7918,-3.70898c-0.4207,-0.96533 -0.93442,-2.69678 -1.28027,-3.74561l0.13228,-0.13477l0.18457,0.09814l-0.30337,0.02344l0.3416,0.13623c0.15571,-0.77051 0.22354,-1.35352 0.30337,-2.12402c0.14224,-1.37285 -0.32021,-4.58774 0.31626,-5.63555c0.67148,-4.71592 1.64854,-8.16006 4.36128,-12.12861c1.38662,-2.10498 3.50786,-4.29272 5.54546,-5.77324c4.87925,-3.4979 10.92729,-4.96172 16.86592,-4.08193c4.2123,0.37236 7.5772,1.53926 11.18833,3.87334c0.68774,0.44443 2.79756,2.32632 3.15088,2.5251l0.2209,-0.06006c0.40063,0.38042 0.63647,0.59033 1.07373,0.92563l0.23423,-0.1604c0.04087,-0.48267 0.03252,-0.58228 0.27935,-1.02188c0.25488,-0.16963 0.2001,-0.09521 0.3416,-0.29165c2.85322,-3.96357 6.26001,-7.82593 9.5269,-11.44878c0.57275,-0.57539 1.25244,-1.36699 1.80908,-1.9812l0.3208,-0.38101c0.02051,0.89209 0.03369,1.78433 0.03809,2.67656z" fill="#02509d"/><path d="M150.27832,111.29385c0.02051,0.89209 0.03369,1.78433 0.03809,2.67656c-0.02051,0.62886 -0.04395,0.68101 -0.48047,1.19312l0.00293,0.1229c-0.20068,1.08091 -0.65918,1.93608 -0.85547,3.51138c-1.0459,3.2436 -4.65483,6.95684 -6.97529,9.48296c-0.78867,0.85869 -2.0877,2.60728 -3.31274,2.71626c-0.53042,-0.50024 -0.42627,-0.39888 -1.29565,-0.51606c0.57231,-0.11821 0.71865,-0.13682 1.30107,-0.15337l0.11323,-0.23877l0.22002,-0.04072c0.71646,-0.68262 2.51953,-2.4104 2.88091,-3.24155l-0.20845,-0.01611c-0.99932,1.00679 -1.31104,2.01255 -2.96177,2.27593c-0.52061,0.08306 -0.98291,0.07896 -1.48813,-0.14678c-2.34199,-1.17363 -4.61016,-2.43735 -6.99741,-3.55239c-0.59985,-0.28022 -2.44204,-0.79204 -3.35771,-1.08442c-2.95474,-0.94351 -6.96064,-0.479 -10.10391,-0.53921c-0.24683,-0.00469 -1.08574,0.30073 -1.40156,0.37441c-1.19399,0.27832 -2.72417,0.42275 -3.87144,0.75923c-1.49092,0.45439 -2.91328,1.17231 -4.33843,1.77554c-3.17563,1.34399 -6.34629,3.72773 -8.29072,6.58901c-0.36782,0.54141 -1.9689,3.56675 -2.20181,4.21655c0.00293,-2.79829 3.03281,-7.30591 3.02754,-8.28838c1.38662,-2.10498 3.50786,-4.29272 5.54546,-5.77324c4.87925,-3.4979 10.92729,-4.96172 16.86592,-4.08193c4.2123,0.37236 7.5772,1.53926 11.18833,3.87334c0.68774,0.44443 2.79756,2.32632 3.15088,2.5251l0.2209,-0.06006c0.40063,0.38042 0.63647,0.59033 1.07373,0.92563l0.23423,-0.1604c0.04087,-0.48267 0.03252,-0.58228 0.27935,-1.02188c0.25488,-0.16963 0.2001,-0.09521 0.3416,-0.29165c2.85322,-3.96357 6.26001,-7.82593 9.5269,-11.44878c0.57275,-0.57539 1.25244,-1.36699 1.80908,-1.9812z" fill="url(#color-5)"/><path d="M150.27832,111.29385c0.02051,0.89209 0.03369,1.78433 0.03809,2.67656c-0.02051,0.62886 -0.04395,0.68101 -0.48047,1.19312l0.00293,0.1229c-2.61182,2.72607 -5.13193,5.99224 -7.66289,8.81514c-1.0522,1.17378 -2.25132,2.76855 -3.3876,3.81152c-1.03022,-0.73242 -1.47217,-1.26006 -2.31665,-2.1999l0.2209,-0.06006c0.40063,0.38042 0.63647,0.59033 1.07373,0.92563l0.23423,-0.1604c0.04087,-0.48267 0.03252,-0.58228 0.27935,-1.02188c0.25488,-0.16963 0.2001,-0.09521 0.3416,-0.29165c2.85322,-3.96357 6.26001,-7.82593 9.5269,-11.44878c0.57275,-0.57539 1.25244,-1.36699 1.80908,-1.9812z" fill="#6d7279"/><path d="M150.27832,111.29385c0.02051,0.89209 0.03369,1.78433 0.03809,2.67656c-0.02051,0.62886 -0.04395,0.68101 -0.48047,1.19312l-0.16846,-0.19116c-0.11865,-1.74844 0.0542,-1.73994 0.29004,-3.29751z" fill="#9f9a97"/><path d="M149.83887,115.28643c-0.20068,1.08091 -0.65918,1.93608 -0.85547,3.51138c-0.00293,-0.59561 0.104,-0.7667 -0.16992,-1.1729c-1.5249,0.33486 -7.97563,9.66929 -10.00811,10.75239c-0.51548,0.2748 -4.18696,-3.4043 -4.64077,-3.81108c-2.55308,-2.28911 -5.83872,-3.1645 -9.01743,-4.2041l0.10093,-0.10488c1.11987,0.02827 1.54702,0.49087 2.45903,0.58755l0.05508,-0.08906c-1.67578,-0.61479 -3.97368,-1.11636 -5.74219,-1.19575l-0.07661,-0.12554l0.18911,-0.11968c4.2123,0.37236 7.5772,1.53926 11.18833,3.87334c0.68774,0.44443 2.79756,2.32632 3.15088,2.5251c0.84448,0.93984 1.28643,1.46748 2.31665,2.1999c1.13628,-1.04297 2.3354,-2.63774 3.3876,-3.81152c2.53096,-2.8229 5.05107,-6.08906 7.66289,-8.81514z" fill="#02122d"/><path d="M99.72114,129.16992c0.00527,0.98247 -3.02461,5.49009 -3.02754,8.28838c0.13975,0.94204 -0.86836,4.12705 -0.92197,5.37114c-0.20435,4.73306 0.80229,10.60122 2.85073,14.89614c1.99761,4.18945 8.62632,7.88672 12.87202,9.00146l-0.05273,0.35303c-5.2459,-1.58057 -10.95234,-4.82227 -13.65718,-9.77344c0.08906,-0.60059 0.12305,-0.30908 -0.16743,-0.89502l-0.15981,-0.02197c-0.60088,-0.66943 -1.41182,-2.7876 -1.7918,-3.70898c-0.4207,-0.96533 -0.93442,-2.69678 -1.28027,-3.74561l0.13228,-0.13477l0.18457,0.09814l-0.30337,0.02344l0.3416,0.13623c0.15571,-0.77051 0.22354,-1.35352 0.30337,-2.12402c0.14224,-1.37285 -0.32021,-4.58774 0.31626,-5.63555c0.67148,-4.71592 1.64854,-8.16006 4.36128,-12.12861z" fill="#02122d"/><path d="M94.38516,148.93506l0.13228,-0.13477l0.18457,0.09814l-0.30337,0.02344l0.3416,0.13623c0.15571,-0.77051 0.22354,-1.35352 0.30337,-2.12402c0.14224,-1.37285 -0.32021,-4.58774 0.31626,-5.63555c-0.17725,3.76758 -0.22368,6.2376 0.58184,10.0125c0.51255,1.99512 0.93413,3.19043 1.67534,5.10059l-0.15981,-0.02197c-0.60088,-0.66943 -1.41182,-2.7876 -1.7918,-3.70898c-0.4207,-0.96533 -0.93442,-2.69678 -1.28027,-3.74561z" fill="#8e8f98"/><path d="M95.66543,152.68066c-0.03999,-0.80566 -0.46113,-2.57959 -0.63911,-3.479l0.17944,-0.10986l-0.17285,0.13477l0.19834,-0.12305c0.38467,0.52002 0.02549,1.76221 0.71045,2.20752c0.51255,1.99512 0.93413,3.19043 1.67534,5.10059l-0.15981,-0.02197c-0.60088,-0.66943 -1.41182,-2.7876 -1.7918,-3.70898z" fill="#9f9a97"/><path d="M118.82271,157.20117c-1.86357,-0.18164 -2.01006,-1.35059 -1.80161,-2.41406c0.06929,-0.35303 -1.73262,-2.52832 -1.74785,-3.25781c-0.03281,-1.55859 0.19907,-3.04834 0.24287,-4.604c0.13931,-1.56138 -0.16978,-10.28394 0.46641,-11.26143l0.02402,12.03633c-0.02344,1.56152 -0.21841,3.07324 0.43521,4.51465l-0.17798,0.21826c0.67061,1.32568 0.91714,2.33203 1.45796,3.68848c0.02446,0.06006 0.72817,0.48486 0.86689,0.56689c0.15527,0.2666 0.16465,0.22412 0.23408,0.5127z" fill="#042a61"/><path d="M157.49854,105.95669c0.51563,-0.58564 0.83789,-1.89053 1.73584,-2.27607c0.34424,-0.14854 0.20361,-0.10488 0.41748,-0.46758l0.00879,3.06064c-0.04395,0.22676 -0.09082,0.42568 -0.11426,0.65522l-0.15967,0.08774c-0.01318,-0.31743 0.03223,-0.65361 -0.11426,-0.87158c-0.69287,0.77065 -0.88037,1.81655 -0.96533,2.82451l0.07324,0.14473c-0.04248,0.17739 -0.27686,1.74668 -0.26221,1.7332c-0.271,-0.59678 0.00439,-1.33638 -0.07764,-1.72471c-0.33691,-1.60957 -0.8877,-1.40669 -0.54199,-3.16611z" fill="#1163ba"/><path d="M152.4873,175.76514c0.07764,0.38232 0.05127,0.20215 -0.11572,0.65332c-1.01074,0.88477 -1.99365,1.45459 -3.07617,2.21777c-7.50205,5.35547 -16.30415,8.60156 -25.48799,9.39697c-2.57271,0.2124 -5.94214,0.10107 -8.62603,-0.00293c-6.77109,-0.26221 -13.54248,-2.47852 -19.39775,-5.82861c-2.50239,-1.43115 -5.72227,-4.24951 -7.84087,-6.20215c-2.01108,-1.85303 -3.31348,-3.73828 -5.12065,-5.68359c-0.00088,-0.32227 -0.00557,-0.22852 0.01011,-0.47021l0.01084,-0.14941c-1.50864,-1.79883 -2.58882,-3.63428 -3.68701,-5.69531l-0.11792,0.2417l-0.00308,-0.12158c0.20449,0.56543 0.56294,1.05908 0.56704,1.5791c-0.03721,-0.03662 -0.07456,-0.07324 -0.11191,-0.1084c-3.20493,-5.25 -4.95938,-11.36133 -5.67627,-17.43164c-0.17373,-1.47217 0.04673,-2.63042 0.12598,-3.82603l-0.07339,0.1626l0.06738,-0.13784l-0.0252,0.14019c0.1481,-0.15352 0.20874,-0.5688 0.27451,-0.81973l0.17915,0.12729c0.12686,9.55957 3.35435,18.81885 9.19702,26.38477l0.2064,0.01611c0.87598,0.87305 2.15259,2.44043 2.95942,3.07178l-0.00322,0.1875c2.66528,1.94678 3.82163,3.27832 7.01543,5.24121c1.03403,0.56836 4.51113,2.50195 5.57725,2.83301c4.39321,1.83105 8.23037,2.70264 12.92036,3.39111l0.56514,-0.01758c1.13965,0.29736 5.70249,0.40137 6.91714,0.23145c7.09907,-0.06445 13.30488,-1.7168 19.75049,-4.51025c1.80659,-0.95508 3.4519,-1.76953 5.26479,-2.78174c1.27734,-0.64893 5.68491,-3.65479 6.75571,-4.61279l0.86865,-0.55078c0.01758,0.56689 0.05127,2.6543 0.13037,3.07471z" fill="url(#color-6)"/><path d="M152.4873,175.76514c0.07764,0.38232 0.05127,0.20215 -0.11572,0.65332c-1.01074,0.88477 -1.99365,1.45459 -3.07617,2.21777c-7.50205,5.35547 -16.30415,8.60156 -25.48799,9.39697c-2.57271,0.2124 -5.94214,0.10107 -8.62603,-0.00293c-6.77109,-0.26221 -13.54248,-2.47852 -19.39775,-5.82861c-2.50239,-1.43115 -5.72227,-4.24951 -7.84087,-6.20215c-2.01108,-1.85303 -3.31348,-3.73828 -5.12065,-5.68359c-0.00088,-0.32227 -0.00557,-0.22852 0.01011,-0.47021l0.01084,-0.14941c-1.50864,-1.79883 -2.58882,-3.63428 -3.68701,-5.69531l-0.11792,0.2417l-0.00308,-0.12158c0.20449,0.56543 0.56294,1.05908 0.56704,1.5791c-0.03721,-0.03662 -0.07456,-0.07324 -0.11191,-0.1084c-3.20493,-5.25 -4.95938,-11.36133 -5.67627,-17.43164c-0.17373,-1.47217 0.04673,-2.63042 0.12598,-3.82603l-0.07339,0.1626l0.06738,-0.13784l-0.0252,0.14019c0.1481,-0.15352 0.20874,-0.5688 0.27451,-0.81973l0.17915,0.12729c0.12686,9.55957 3.35435,18.81885 9.19702,26.38477c1.19692,3.11279 9.19424,9.81299 12.20449,11.65137c11.66074,7.12207 27.05728,7.6333 39.84067,3.42773c0.13022,-0.04395 0.33501,-0.14648 0.46641,-0.20947c-0.03428,-0.14648 -0.02783,-0.0542 0.05596,-0.27393c0.58477,-0.2124 1.30811,-0.45703 1.86606,-0.70752l0.21621,-0.09814c1.13672,-0.83496 1.52725,-1.79883 1.55273,-3.16553l-0.29414,-0.18018c1.80659,-0.95508 3.4519,-1.76953 5.26479,-2.78174c1.27734,-0.64893 5.68491,-3.65479 6.75571,-4.61279l0.86865,-0.55078c0.01758,0.56689 0.05127,2.6543 0.13037,3.07471z" fill="#042a61"/><path d="M152.35693,172.69043c0.01758,0.56689 0.05127,2.6543 0.13037,3.07471c-1.76221,1.2334 -5.71289,4.69336 -7.61016,5.34229c-3.00308,-0.78955 -4.22256,2.40088 -6.66797,2.87402c1.13672,-0.83496 1.52725,-1.79883 1.55273,-3.16553l-0.29414,-0.18018c1.80659,-0.95508 3.4519,-1.76953 5.26479,-2.78174c1.27734,-0.64893 5.68491,-3.65479 6.75571,-4.61279z" fill="url(#color-7)"/><path d="M138.20918,183.98145c2.44541,-0.47314 3.66489,-3.66357 6.66797,-2.87402c-2.1082,1.32861 -6.34702,3.2124 -8.8062,3.95361c-0.03428,-0.14648 -0.02783,-0.0542 0.05596,-0.27393c0.58477,-0.2124 1.30811,-0.45703 1.86606,-0.70752z" fill="#a2a9b4"/><path d="M86.72197,173.4668c2.66528,1.94678 3.82163,3.27832 7.01543,5.24121c1.03403,0.56836 4.51113,2.50195 5.57725,2.83301c4.39321,1.83105 8.23037,2.70264 12.92036,3.39111c-1.00313,0.30762 -3.12158,-0.08936 -4.34487,-0.00439c-1.22637,0.0835 -2.44453,0.15381 -3.67427,0.15234c-3.2855,-2.47266 -6.89839,-3.6665 -10.66523,-6.1333c-1.20117,-0.73828 -6.82734,-4.41064 -6.82866,-5.47998z" fill="#46484e"/><path d="M114.97031,115.31543c4.52505,-0.64014 9.7106,0.21108 13.89492,2.03203c1.77612,0.773 3.66006,2.12417 5.579,2.45376c0.94761,0.71191 1.5731,1.25317 2.45317,2.05386c0.21826,1.25728 -0.02256,1.03579 1.0251,1.77627c-0.2959,0.12085 -0.1396,0.075 -0.47036,0.13257c0.00132,0.58813 0.12949,0.29268 0.30981,0.84111l0.51797,0.79146c-0.24683,0.4396 -0.23848,0.53921 -0.27935,1.02188l-0.23423,0.1604c-0.43726,-0.3353 -0.6731,-0.54521 -1.07373,-0.92563l-0.2209,0.06006c-0.35332,-0.19878 -2.46313,-2.08066 -3.15088,-2.5251c-3.61113,-2.33408 -6.97603,-3.50098 -11.18833,-3.87334c-5.93862,-0.87979 -11.98667,0.58403 -16.86592,4.08193c-2.0376,1.48052 -4.15884,3.66826 -5.54546,5.77324c-2.71274,3.96855 -3.68979,7.4127 -4.36128,12.12861c-0.63647,1.0478 -0.17402,4.2627 -0.31626,5.63555c-0.07983,0.77051 -0.14766,1.35352 -0.30337,2.12402l-0.3416,-0.13623l0.30337,-0.02344l-0.18457,-0.09814l-0.13228,0.13477c-0.18208,-0.32373 -0.11733,-0.22559 -0.3876,-0.48926c-0.44883,-0.9375 -0.72056,-3.75234 -0.7749,-4.82988c-0.37192,-7.36406 1.85815,-14.83564 6.82295,-20.37144l-0.44458,-0.3252c0.64834,-1.04312 2.17163,-2.12769 3.15967,-2.86187c3.52339,-2.61812 7.87119,-4.19648 12.20962,-4.74199z" fill="url(#color-8)"/><path d="M114.97031,115.31543c4.52505,-0.64014 9.7106,0.21108 13.89492,2.03203c1.77612,0.773 3.66006,2.12417 5.579,2.45376c0.94761,0.71191 1.5731,1.25317 2.45317,2.05386c0.21826,1.25728 -0.02256,1.03579 1.0251,1.77627c-0.2959,0.12085 -0.1396,0.075 -0.47036,0.13257c0.00132,0.58813 0.12949,0.29268 0.30981,0.84111c-0.55913,-0.63267 -1.04839,-1.22271 -1.7061,-1.75957c-0.77373,-0.08423 -1.79648,-1.29302 -2.7,-1.90591c-0.29092,-0.046 -2.71816,-1.75371 -3.38057,-2.05151c-1.33008,-0.5978 -2.30962,-0.28755 -3.78311,-0.68716c-1.41914,-0.38481 -3.31494,-1.73452 -4.64429,-1.9396c-0.41587,-0.06416 -0.76406,0.08569 -1.5085,-0.22617c-0.86396,0.398 -3.31919,0.04189 -4.46777,0.09595c-3.31978,0.15615 -6.61216,1.20937 -9.54023,2.75039c-0.71938,0.37588 -3.03018,2.01255 -3.59619,2.08564c-0.82529,0.59224 -1.71021,1.51436 -2.3896,2.27739l-0.44458,-0.3252c0.64834,-1.04312 2.17163,-2.12769 3.15967,-2.86187c3.52339,-2.61812 7.87119,-4.19648 12.20962,-4.74199z" fill="#cdced1"/><path d="M121.64077,115.76733c3.33193,0.52441 9.56396,2.38198 11.87197,4.84058l-0.15688,0.33164c-0.29092,-0.046 -2.71816,-1.75371 -3.38057,-2.05151c-1.33008,-0.5978 -2.30962,-0.28755 -3.78311,-0.68716c-1.41914,-0.38481 -3.31494,-1.73452 -4.64429,-1.9396c-0.41587,-0.06416 -0.76406,0.08569 -1.5085,-0.22617c0.09082,-0.0542 1.26738,-0.17974 1.60137,-0.26777z" fill="url(#color-9)"/><path d="M102.43521,120.96709c0.12363,-0.10532 0.24946,-0.20801 0.37734,-0.30806c5.30229,-4.21992 12.18193,-5.65605 18.82822,-4.8917c-0.33398,0.08804 -1.51055,0.21357 -1.60137,0.26777c-0.86396,0.398 -3.31919,0.04189 -4.46777,0.09595c-3.31978,0.15615 -6.61216,1.20937 -9.54023,2.75039c-0.71938,0.37588 -3.03018,2.01255 -3.59619,2.08564z" fill="#46484e"/><path d="M133.51274,120.60791c0.72422,0.56016 1.96802,1.52944 2.54312,2.23755c-0.77373,-0.08423 -1.79648,-1.29302 -2.7,-1.90591z" fill="#46484e"/><path d="M75.71792,139.09351c0.91567,-10.1042 3.52837,-16.93477 9.96021,-24.89531l0.09829,0.04014c-1.48594,2.23682 -3.04409,3.8751 -4.38867,6.29517c-10.16147,18.28813 -6.27012,44.10615 11.89365,55.95088c10.38486,6.77197 22.92158,8.40381 34.94502,5.99121c7.6998,-1.53809 16.55625,-5.74219 22.49429,-10.95996l0.03662,-23.3335c0.00439,-3.67061 -0.13037,-8.61606 0.05566,-12.17007c0.53906,1.14302 -0.05713,20.34243 0.22852,23.46108c0.42041,2.05078 -0.15527,10.77246 0.30762,11.67627c0.27246,-0.22998 0.41748,-0.64014 0.42188,-0.98877c0.04102,-3.46143 -0.0791,-6.95068 0.00439,-10.40918l0.11426,-0.03809c0.09082,0.38086 0.14355,1.53223 0.09521,1.90283c-0.25928,1.93799 0.47461,10.10596 -0.46729,11.28516l-0.0293,0.33984c-1.0708,0.95801 -5.47837,3.96387 -6.75571,4.61279c-1.81289,1.01221 -3.4582,1.82666 -5.26479,2.78174c-6.44561,2.79346 -12.65142,4.4458 -19.75049,4.51025c-1.21465,0.16992 -5.77749,0.06592 -6.91714,-0.23145l-0.56514,0.01758c-4.68999,-0.68848 -8.52715,-1.56006 -12.92036,-3.39111c-1.06611,-0.33105 -4.54321,-2.26465 -5.57725,-2.83301c-3.1938,-1.96289 -4.35015,-3.29443 -7.01543,-5.24121l0.00322,-0.1875c-0.80684,-0.63135 -2.08345,-2.19873 -2.95942,-3.07178l-0.2064,-0.01611c-5.84268,-7.56592 -9.07017,-16.8252 -9.19702,-26.38477c-0.02783,-1.0002 -0.0394,-1.61924 0.04556,-2.61284c0.20991,0.61978 0.21416,2.71421 0.23599,3.47637c0.10137,3.53247 0.69873,6.73755 1.48359,10.17554c0.1333,-0.47754 -0.01729,-1.53076 -0.01992,-2.06836c-0.01963,-4.02832 -1.5271,-9.83306 -0.38965,-13.68384z" fill="#46484e"/><path d="M151.0415,159.47314c0.42041,2.05078 -0.15527,10.77246 0.30762,11.67627c0.27246,-0.22998 0.41748,-0.64014 0.42188,-0.98877c0.04102,-3.46143 -0.0791,-6.95068 0.00439,-10.40918l0.11426,-0.03809c0.09082,0.38086 0.14355,1.53223 0.09521,1.90283c-0.25928,1.93799 0.47461,10.10596 -0.46729,11.28516l-0.0293,0.33984c-1.0708,0.95801 -5.47837,3.96387 -6.75571,4.61279c-1.81289,1.01221 -3.4582,1.82666 -5.26479,2.78174c-6.44561,2.79346 -12.65142,4.4458 -19.75049,4.51025c-1.21465,0.16992 -5.77749,0.06592 -6.91714,-0.23145l-0.56514,0.01758c-4.68999,-0.68848 -8.52715,-1.56006 -12.92036,-3.39111c-1.06611,-0.33105 -4.54321,-2.26465 -5.57725,-2.83301c-3.1938,-1.96289 -4.35015,-3.29443 -7.01543,-5.24121l0.00322,-0.1875l0.29941,-0.22119c2.22188,1.62012 5.92837,5.47559 8.67495,5.35547c6.55195,3.34863 11.33203,4.87207 18.74692,5.38037c13.28071,0.89355 26.38462,-3.44092 36.51445,-12.07617c0.20508,-3.64014 -0.00293,-8.45068 0.08057,-12.24463z" fill="url(#color-10)"/><path d="M119.71729,185.146c0.43799,-0.15527 0.86587,0.09229 1.99248,-0.37793l-0.48311,0.00732c0.79761,-0.22266 2.41831,-0.19775 3.3123,-0.30762c6.95449,-0.85986 13.34443,-3.21094 19.43525,-6.62842c0.40884,-0.22852 0.37778,-0.14941 0.75835,0.01465c-1.81289,1.01221 -3.4582,1.82666 -5.26479,2.78174c-6.44561,2.79346 -12.65142,4.4458 -19.75049,4.51025z" fill="#cdced1"/><path d="M99.31465,181.54102c0.16128,-0.03662 0.3605,-0.08057 0.5981,-0.13477c1.46514,0.46436 3.11133,1.00635 4.55566,1.46338c1.76675,0.55957 3.38833,0.82617 5.14849,1.22168c0.8458,0.19043 2.77456,0.29004 3.2064,0.52148l-0.02314,0.30176l-0.56514,0.01758c-4.68999,-0.68848 -8.52715,-1.56006 -12.92036,-3.39111z" fill="#a2a9b4"/><path d="M74.40791,141.1938c0.20991,0.61978 0.21416,2.71421 0.23599,3.47637c0.10137,3.53247 0.69873,6.73755 1.48359,10.17554c0.1333,-0.47754 -0.01729,-1.53076 -0.01992,-2.06836c-0.01963,-4.02832 -1.5271,-9.83306 -0.38965,-13.68384c0.08071,1.81201 -0.05845,3.79351 0.01172,5.71304c0.26777,7.32041 1.97285,11.90391 4.94385,18.37266c-0.10034,1.73145 4.17114,5.41553 3.09229,7.02832l-0.2064,-0.01611c-5.84268,-7.56592 -9.07017,-16.8252 -9.19702,-26.38477c-0.02783,-1.0002 -0.0394,-1.61924 0.04556,-2.61284z" fill="#a2a9b4"/><path d="M80.67349,163.1792l0.10898,0.14648c0.44165,0.60205 1.0021,1.77686 1.46118,2.48584c1.31836,2.03906 3.3167,4.76074 5.1542,6.33691c0.36738,0.4292 0.47314,0.56396 0.90967,0.90967c2.58413,2.3291 4.42163,3.58594 7.39204,5.35547c-2.74658,0.12012 -6.45308,-3.73535 -8.67495,-5.35547l-0.29941,0.22119c-0.80684,-0.63135 -2.08345,-2.19873 -2.95942,-3.07178c1.07886,-1.61279 -3.19263,-5.29687 -3.09229,-7.02832z" fill="#cdced1"/><path d="M87.39785,172.14844c0.48604,0.34424 0.53232,0.43213 0.90967,0.90967c-0.43652,-0.3457 -0.54229,-0.48047 -0.90967,-0.90967z" fill="#6d7279"/><path d="M99.60103,122.91929l0.44458,0.3252c-4.96479,5.53579 -7.19487,13.00737 -6.82295,20.37144c0.05435,1.07754 0.32607,3.89238 0.7749,4.82988c0.27026,0.26367 0.20552,0.16553 0.3876,0.48926c0.34585,1.04883 0.85957,2.78027 1.28027,3.74561c0.37998,0.92139 1.19092,3.03955 1.7918,3.70898l0.15981,0.02197c0.29048,0.58594 0.25649,0.29443 0.16743,0.89502c2.70483,4.95117 8.41128,8.19287 13.65718,9.77344l0.05273,-0.35303c1.31147,0.23877 2.61606,0.50391 3.93208,0.73389c0.63984,0.11133 2.35562,0.26074 2.85557,0.41162c3.92915,0.45264 9.05801,-1.06934 12.65786,-2.51367c0.96123,-0.42773 2.42124,-1.05322 3.19819,-1.7168c0.13755,-0.00293 1.49443,0.49365 1.65645,0.58887c-1.86313,1.52344 -5.34258,2.78906 -7.61909,3.646c-0.7812,0.29443 -1.67212,0.44092 -2.23008,0.85254c1.32407,-0.18896 5.13237,-1.80322 6.57246,-2.29541c-0.6394,0.55664 -1.71489,0.94922 -2.5248,1.26563c-4.28247,1.66406 -8.88325,2.34961 -13.46484,2.00391c-1.36143,-0.09082 -6.53042,-0.70752 -7.44771,-1.58496c-0.43506,-0.34717 -2.17441,-0.91113 -2.77705,-1.23486c-1.15254,-0.61816 -5.07788,-2.44336 -5.31504,-3.78809c-2.04243,-2.22217 -4.15269,-4.01367 -5.54165,-6.75439c-0.2877,-0.56689 -0.77534,-1.52344 -1.13159,-2.02441l-0.12788,-0.17725c-2.86611,-5.37158 -3.13491,-16.18521 -0.91743,-21.8083c0.79277,-0.74209 1.48081,-3.63823 2.11348,-4.42983c1.38604,-1.73423 3.00659,-2.96104 4.21772,-4.98223z" fill="url(#color-11)"/><path d="M93.99756,148.4458c0.27026,0.26367 0.20552,0.16553 0.3876,0.48926c0.34585,1.04883 0.85957,2.78027 1.28027,3.74561c0.37998,0.92139 1.19092,3.03955 1.7918,3.70898l0.15981,0.02197c0.29048,0.58594 0.25649,0.29443 0.16743,0.89502c-1.98589,-2.38916 -3.06226,-5.90332 -3.78691,-8.86084z" fill="#46484e"/><path d="M109.08047,168.11865c-0.43506,-0.34717 -2.17441,-0.91113 -2.77705,-1.23486c-1.15254,-0.61816 -5.07788,-2.44336 -5.31504,-3.78809c2.31504,2.27197 6.05903,3.98584 9.09434,5.01123l-0.03604,0.17285c-0.44429,-0.03662 -0.53423,-0.05127 -0.96621,-0.16113z" fill="#cdced1"/><path d="M111.49438,166.72705c1.31147,0.23877 2.61606,0.50391 3.93208,0.73389c0.63984,0.11133 2.35562,0.26074 2.85557,0.41162c-2.58164,0.05859 -4.32466,-0.19922 -6.84038,-0.79248z" fill="#042a61"/><path d="M118.82271,157.20117c-0.06943,-0.28857 -0.07881,-0.24609 -0.23408,-0.5127c-0.13872,-0.08203 -0.84243,-0.50684 -0.86689,-0.56689c-0.54082,-1.35645 -0.78735,-2.36279 -1.45796,-3.68848l0.17798,-0.21826c0.36724,0.62256 0.62373,0.97412 1.148,1.48682c1.07109,-0.2373 4.4644,-0.18018 5.70308,-0.18018l10.71636,0.03223c-0.0022,2.81689 -0.14048,7.13965 0.0627,9.85107l0.06621,0.2373c-0.77695,0.66357 -2.23696,1.28906 -3.19819,1.7168c0.43345,-1.3667 1.18594,-1.1499 2.11128,-1.74609c0.51812,-0.88623 0.34116,-3.01758 0.32432,-4.12646c-2.40366,-1.94238 -8.61284,-1.99072 -11.74248,-2.60889c-0.57773,-0.11426 -1.63784,0.52588 -2.8103,0.32373z" fill="url(#color-12)"/><path d="M94.18726,154.13965c-0.61597,-0.65771 -0.93179,-1.98779 -1.19941,-2.83154c-5.14497,-16.20981 3.63281,-35.5856 21.79761,-37.21699c5.57446,-0.50054 10.7625,0.14795 15.77212,2.70615c2.27578,1.16206 5.87886,3.76245 7.42104,5.77866c-0.4582,-0.17417 -0.70122,-0.41484 -1.0812,-0.72085c-0.88008,-0.80068 -1.50557,-1.34194 -2.45317,-2.05386c-1.91895,-0.32959 -3.80288,-1.68076 -5.579,-2.45376c-4.18433,-1.82095 -9.36987,-2.67217 -13.89492,-2.03203c-4.33843,0.54551 -8.68623,2.12388 -12.20962,4.74199c-0.98804,0.73418 -2.51133,1.81875 -3.15967,2.86187c-1.21113,2.02119 -2.83169,3.248 -4.21772,4.98223c-0.63267,0.7916 -1.3207,3.68774 -2.11348,4.42983c-2.21748,5.6231 -1.94868,16.43672 0.91743,21.8083z" fill="#46484e"/><path d="M93.26982,132.33135c0.91772,-3.1626 2.60449,-6.17681 4.61851,-8.76577c3.87554,-4.97842 9.5811,-8.2002 15.84565,-8.94756c0.60557,0.27495 0.59355,0.53057 1.23633,0.69741c-4.33843,0.54551 -8.68623,2.12388 -12.20962,4.74199c-0.98804,0.73418 -2.51133,1.81875 -3.15967,2.86187c-1.21113,2.02119 -2.83169,3.248 -4.21772,4.98223c-0.63267,0.7916 -1.3207,3.68774 -2.11348,4.42983z" fill="url(#color-13)"/><path d="M113.73398,114.61802c7.06714,-1.11475 15.15879,0.4979 20.71025,5.1832c-1.91895,-0.32959 -3.80288,-1.68076 -5.579,-2.45376c-4.18433,-1.82095 -9.36987,-2.67217 -13.89492,-2.03203c-0.64277,-0.16685 -0.63076,-0.42246 -1.23633,-0.69741z" fill="url(#color-14)"/><path d="M122.50034,150.57568c3.7021,0.06299 7.94165,0.08057 11.65254,0.01465c-0.13403,4.18213 0.15952,8.67773 -0.08101,12.81445c-0.20317,-2.71143 -0.06489,-7.03418 -0.0627,-9.85107l-10.71636,-0.03223c-1.23867,0 -4.63198,-0.05713 -5.70308,0.18018l0.3479,-0.20068c-0.67266,-1.69043 -1.92803,-2.95459 1.47275,-2.91064c1.0062,0.01318 2.07905,0.0249 3.08994,-0.01465z" fill="url(#color-15)"/><path d="M147.48926,112.20601l0.12598,-0.12686l0.00146,0.20713c0.00879,0.57378 -0.03955,0.78105 0.20801,1.26606l0.32373,0.10371c-3.26689,3.62285 -6.67368,7.48521 -9.5269,11.44878c-0.1415,0.19644 -0.08672,0.12202 -0.3416,0.29165l-0.51797,-0.79146c-0.18032,-0.54844 -0.3085,-0.25298 -0.30981,-0.84111c0.33076,-0.05757 0.17446,-0.01172 0.47036,-0.13257c-1.04766,-0.74048 -0.80684,-0.51899 -1.0251,-1.77627c0.37998,0.30601 0.623,0.54668 1.0812,0.72085l0.20449,0.14619c0.86938,-1.24072 8.33203,-9.8231 9.30615,-10.51611z" fill="url(#color-16)"/><path d="M138.18311,122.72212c0.86938,-1.24072 8.33203,-9.8231 9.30615,-10.51611c-0.58887,0.99902 -2.48877,3.05889 -3.32944,4.01865c-1.96069,2.21484 -3.90103,4.44741 -5.82085,6.69771l-0.15366,-0.00952z" fill="#46484e"/><path d="M117.83071,149.14014c3.91245,-0.0498 9.34468,-0.16992 13.23955,-0.02051c1.09878,0.70898 2.15698,-0.00293 3.38818,0.37061l-0.47666,0.23584l0.05303,0.22998c0.49116,0.26221 0.97075,0.21533 1.53501,0.22998c-0.47988,0.08203 -1.04897,0.12158 -1.41694,0.4043c-3.71089,0.06592 -7.95044,0.04834 -11.65254,-0.01465c-1.73306,-0.2124 -2.90625,-0.43506 -4.67183,-0.16699c-0.2707,-0.89062 0.30937,-0.02051 0.0022,-1.26855z" fill="url(#color-17)"/><path d="M134.15288,150.59033c0.36797,-0.28271 0.93706,-0.32227 1.41694,-0.4043c0.13945,4.01514 0.00645,8.03467 0.11265,12.05127c0.01758,0.66211 0.01201,1.3374 0.11206,1.99365c-0.16201,-0.09521 -1.5189,-0.5918 -1.65645,-0.58887l-0.06621,-0.2373c0.24053,-4.13672 -0.05303,-8.63232 0.08101,-12.81445z" fill="#cdced1"/><path d="M83.01167,114.8603c1.43452,-2.05591 5.32632,-5.9814 7.48096,-7.36011l0.20552,0.10005c-9.60996,7.82402 -14.86216,17.7 -16.11094,29.99414c-0.08452,0.871 -0.15396,1.74331 -0.20859,2.61665c-0.68965,-0.80435 -0.42905,-2.17295 -0.31172,-3.11294c1.04106,-8.33687 3.93062,-15.50083 8.94478,-22.23779z" fill="#042a61"/><path d="M117.33223,147.54932c-0.00601,-2.7917 -0.16743,-9.14971 0.18545,-11.57051c0.55547,1.62158 -0.32461,12.37617 0.31304,13.16133c0.30718,1.24805 -0.2729,0.37793 -0.0022,1.26855c1.76558,-0.26807 2.93877,-0.04541 4.67183,0.16699c-1.01089,0.03955 -2.08374,0.02783 -3.08994,0.01465c-3.40078,-0.04395 -2.14541,1.22021 -1.47275,2.91064l-0.3479,0.20068c-0.52427,-0.5127 -0.78076,-0.86426 -1.148,-1.48682c-0.65361,-1.44141 -0.45864,-2.95312 -0.43521,-4.51465z" fill="#8e8f98"/><path d="M116.00654,147.7002l1.32568,-0.15088c0.04336,0.79248 0.26689,2.60303 -0.13066,3.13477c-0.54448,0.15967 -0.52881,0.05127 -0.73506,0.41455c0.15498,0.73682 0.22998,0.54639 -0.02476,1.11621c-0.65361,-1.44141 -0.45864,-2.95312 -0.43521,-4.51465z" fill="#cdced1"/><path d="M135.96182,149.04199c0.0646,3.32666 0.09126,6.65479 0.07969,9.98291c0.01011,1.66113 0.09976,3.39404 -0.05713,5.04346c-0.11763,1.23633 -2.94316,1.57764 -3.46655,2.36572c-1.44009,0.49219 -5.24839,2.10645 -6.57246,2.29541c0.55796,-0.41162 1.44888,-0.55811 2.23008,-0.85254c2.27651,-0.85693 5.75596,-2.12256 7.61909,-3.646c-0.10005,-0.65625 -0.09448,-1.33154 -0.11206,-1.99365c-0.1062,-4.0166 0.02681,-8.03613 -0.11265,-12.05127c-0.56426,-0.01465 -1.04385,0.03223 -1.53501,-0.22998l-0.05303,-0.22998l0.47666,-0.23584c-1.2312,-0.37354 -2.2894,0.33838 -3.38818,-0.37061c1.63008,-0.05127 3.26074,-0.07617 4.89155,-0.07764z" fill="#a2a9b4"/><path d="M115.83457,100.10259c7.14727,-0.44487 14.58706,0.86484 21.12671,3.78618c0.87144,0.38936 2.75303,1.19531 3.38408,1.78975c-0.33047,0.14473 -2.12754,-0.94482 -2.61357,-1.18037c-4.03989,-1.95747 -8.0001,-2.95518 -12.37251,-3.72671c-7.43774,-1.24204 -16.13818,-0.27656 -23.19976,2.29644c-0.9334,0.33999 -1.75107,0.98027 -2.81089,1.05864l0.15337,-0.21855c1.00928,-0.55942 1.73276,-0.63574 2.7145,-1.02261c4.59756,-1.81201 8.72461,-2.46299 13.61807,-2.78276z" fill="#a2a9b4"/><path d="M98.21235,104.40894c0.09741,-0.00308 0.19072,0.04102 0.28506,0.06592c-0.20493,0.30762 -1.79106,1.16763 -2.22817,1.39351c-3.97969,2.05649 -6.87642,4.82798 -10.03022,7.99175l-0.12891,0.12539l-0.14077,-0.08848c0.12217,-0.44077 0.96226,-1.15283 1.30723,-1.51772c3.21167,-3.39609 6.86338,-5.7665 10.93579,-7.97036z" fill="#cdced1"/><path d="M142.62729,107.26406l0.13418,-0.05142c1.07388,0.29927 4.27954,2.96997 4.97095,3.99624c-0.32227,-0.16758 -1.67095,-1.36128 -2.08213,-1.70347c-1.06948,-0.88989 -1.84849,-1.46719 -3.023,-2.24136z" fill="#a2a9b4"/><path d="M184.80029,100.34619c9.19043,0.16919 19.51758,0.19263 28.74316,0.08159l2.26025,0.00381c0.93311,0.00615 4.45166,0.08906 5.18555,-0.00527c0.17432,2.12256 0.03955,5.76255 0.02783,8.02749c0.01172,2.40806 0.0835,5.13237 -0.01172,7.51421c-0.73242,0.91641 -2.48877,3.20156 -3.26514,3.86514c-5.50049,0.01685 -11.12402,-0.02827 -16.61279,0.0873c-6.14941,0.12935 -12.90674,0.40562 -19.02246,0.07412c-0.87012,0.41968 -2.25,-0.25781 -2.41699,0.27612c-0.8877,2.85 -0.37061,6.31245 -0.64746,9.25356l-0.00146,3.73418c2.76855,-0.1604 5.95313,-0.09946 8.75391,-0.1002l13.70654,-0.00161l9.04248,-0.00498c0.81445,-0.00278 4.50879,-0.13594 4.97314,0.18662c-0.21973,1.32363 -0.13184,3.28843 -0.12158,4.68135l0.06152,7.51494c0.00732,1.40537 0.27246,3.33896 -0.63867,4.42148c-0.47461,0.77637 -1.54834,1.7915 -2.2251,2.46387c-2.32471,0.30615 -6.11426,0.11865 -8.53271,0.12158l-16.65967,0.01318c-1.89111,0.00146 -6.16406,-0.1377 -7.74023,0.271c-0.63867,0.93896 -0.45117,6.36768 -0.62695,7.78564c-0.00293,2.00684 -0.09229,4.76221 0.01025,6.70605c3.99609,-0.07471 42.36475,-0.24902 43.22314,0.16406c-0.0293,2.15771 0.27539,15.33984 -0.06006,16.39746c-0.2915,0.25781 -0.42187,0.33545 -0.60937,0.67529c-0.25195,0.854 -1.8457,2.77881 -2.18848,2.77588c-2.84473,-0.02344 -7.44434,-0.0542 -10.11621,-0.05566c-15.1626,0.11133 -30.32666,0.10254 -45.48926,-0.0249c-0.83203,-0.01465 -2.75537,0.05273 -3.35596,-0.4541c-0.38965,-0.11865 -0.39551,-0.10693 -0.73096,-0.32812l-0.01611,-0.42334c-0.09814,-1.92334 0.08496,-4.77246 0.09229,-6.80713l-0.01025,-15.38232c-0.0249,-19.12383 0.14063,-38.47676 -0.12012,-57.58081l-0.00879,-3.06064c-0.02051,-0.94438 -0.34863,-2.60024 0.73682,-2.7646c5.44922,-0.07617 10.89697,-0.09727 16.34619,-0.06328c2.57373,0.00176 5.52686,0.06826 8.06543,-0.03896z" fill="#fe3240"/><path d="M215.51514,133.33828c-0.21973,1.32363 -0.13184,3.28843 -0.12158,4.68135l0.06152,7.51494c0.00732,1.40537 0.27246,3.33896 -0.63867,4.42148c-0.47461,0.77637 -1.54834,1.7915 -2.2251,2.46387c-2.32471,0.30615 -6.11426,0.11865 -8.53271,0.12158l-16.65967,0.01318c-1.89111,0.00146 -6.16406,-0.1377 -7.74023,0.271c-0.63867,0.93896 -0.45117,6.36768 -0.62695,7.78564c-0.00293,2.00684 -0.09229,4.76221 0.01025,6.70605c3.99609,-0.07471 42.36475,-0.24902 43.22314,0.16406c-0.0293,2.15771 0.27539,15.33984 -0.06006,16.39746c-0.44238,-0.84668 -0.55811,-1.06348 -1.4165,-1.45166l-0.14941,-0.13184l-0.37646,0.02197c-0.62842,-0.16113 -4.12646,-0.1084 -5.0376,-0.10693l-10.1001,0.01465l-42.87158,-0.01172c0.67529,-0.64307 0.40723,-7.6626 0.4292,-9.01172l0.17139,-17.56055c0.01318,-3.30615 -0.05566,-7.06055 0.09082,-10.3377c13.49268,0.21519 28.62744,-3.27539 41.35107,-8.08447c1.35205,-0.51108 4.05029,-1.3998 5.02148,-2.30552l0.7749,-0.0416c0.54785,-0.23086 3.12012,-0.24492 3.65479,0.05259c0.41309,-0.44209 0.8291,-0.88154 1.24658,-1.31836z" fill="url(#color-18)"/><path d="M215.51514,133.33828c-0.21973,1.32363 -0.13184,3.28843 -0.12158,4.68135l0.06152,7.51494c0.00732,1.40537 0.27246,3.33896 -0.63867,4.42148c-0.47461,0.77637 -1.54834,1.7915 -2.2251,2.46387c-2.32471,0.30615 -6.11426,0.11865 -8.53271,0.12158l-16.65967,0.01318c-1.89111,0.00146 -6.16406,-0.1377 -7.74023,0.271c-0.63867,0.93896 -0.45117,6.36768 -0.62695,7.78564c-0.00293,2.00684 -0.09229,4.76221 0.01025,6.70605c3.99609,-0.07471 42.36475,-0.24902 43.22314,0.16406c-0.56543,0.44238 -1.05322,1.10449 -1.42529,1.33594l-0.2124,0.36475l-0.35303,0.01611l-26.53125,-0.00439c-5.48145,-0.00146 -11.27051,0.08203 -16.72412,-0.12598l0.12012,-21.67969c4.38867,-0.01758 34.14111,1.06641 36.22998,-0.19775c0.36914,-1.35366 -0.08496,-10.05557 0.06592,-12.12187l0.01318,-0.17549c-0.94922,-0.0772 -2.32764,-0.00381 -3.35596,-0.02124c0.54785,-0.23086 3.12012,-0.24492 3.65479,0.05259c0.41309,-0.44209 0.8291,-0.88154 1.24658,-1.31836z" fill="#fe586a"/><path d="M213.59912,148.11621l0.12158,-0.03516c0.59326,0.26807 0.86426,0.2666 1.17334,0.74854c-0.07324,0.39551 -0.22852,0.82617 -0.07764,1.12646c-0.47461,0.77637 -1.54834,1.7915 -2.2251,2.46387c-2.32471,0.30615 -6.11426,0.11865 -8.53271,0.12158l-16.65967,0.01318c-1.89111,0.00146 -6.16406,-0.1377 -7.74023,0.271c-0.63867,0.93896 -0.45117,6.36768 -0.62695,7.78564c-0.14941,-2.50488 -0.10986,-9.20361 0.00879,-11.71143l-0.22705,-0.50537c1.04004,-0.10986 4.45313,-0.01318 5.68066,-0.01318h21.86719c1.07227,0 6.5918,0.14941 7.23779,-0.26514z" fill="#730001"/><path d="M179.04053,148.8999c1.38721,0.86133 8.89307,0.52588 11.02295,0.62988c-3.2417,0.03223 -7.72705,0.18457 -10.83105,-0.16406c-0.20068,0.65625 0.24902,2.21631 0.43066,2.90918l21.52295,0.07324c3.56689,0.00586 7.88232,-0.09521 11.40527,0.07178c-2.32471,0.30615 -6.11426,0.11865 -8.53271,0.12158l-16.65967,0.01318c-1.89111,0.00146 -6.16406,-0.1377 -7.74023,0.271c-0.63867,0.93896 -0.45117,6.36768 -0.62695,7.78564c-0.14941,-2.50488 -0.10986,-9.20361 0.00879,-11.71143z" fill="#500000"/><path d="M179.04199,167.31738c3.99609,-0.07471 42.36475,-0.24902 43.22314,0.16406c-0.56543,0.44238 -1.05322,1.10449 -1.42529,1.33594c-1.14697,-0.34277 -14.96045,-0.09668 -17.0127,-0.09814l-17.24561,-0.00439c-2.48145,0 -6.72949,-0.13184 -9.01904,0.09375c0.37354,-0.56982 0.96094,-1.02979 1.47949,-1.49121z" fill="#fe3240"/><path d="M177.5625,168.80859l-0.15967,-0.24023c0.11719,-6.75732 0.01758,-13.67725 0.12305,-20.43604c0.00439,-0.21826 0.11572,-0.21533 0.29883,-0.32373l0.40137,0.13184c0.28711,0.26367 0.25488,0.27686 0.5874,0.4541l0.22705,0.50537c-0.11865,2.50781 -0.1582,9.20654 -0.00879,11.71143c-0.00293,2.00684 -0.09229,4.76221 0.01025,6.70605c-0.51855,0.46143 -1.10596,0.92139 -1.47949,1.49121z" fill="#c8010b"/><path d="M215.51514,133.33828c-0.21973,1.32363 -0.13184,3.28843 -0.12158,4.68135l0.06152,7.51494c0.00732,1.40537 0.27246,3.33896 -0.63867,4.42148c-0.15088,-0.30029 0.00439,-0.73096 0.07764,-1.12646c-0.30908,-0.48193 -0.58008,-0.48047 -1.17334,-0.74854c0.17139,-0.80859 -0.00586,-3.07485 0.00146,-4.00811c0.0249,-2.96675 -0.15967,-6.20332 0.0249,-9.14854c0.41309,-0.44209 0.8291,-0.88154 1.24658,-1.31836z" fill="#ec0415"/><path d="M178.22607,147.94043l24.52441,-0.01904c1.72998,0 9.54053,-0.12158 10.84863,0.19482c-0.646,0.41455 -6.16553,0.26514 -7.23779,0.26514h-21.86719c-1.22754,0 -4.64062,-0.09668 -5.68066,0.01318c-0.33252,-0.17725 -0.30029,-0.19043 -0.5874,-0.4541z" fill="#06050d"/><path d="M222.26514,167.48145c-0.0293,2.15771 0.27539,15.33984 -0.06006,16.39746c-0.44238,-0.84668 -0.55811,-1.06348 -1.4165,-1.45166l-0.14941,-0.13184c-0.15234,-1.99805 -0.09229,-4.54834 -0.11572,-6.58447c-0.02197,-1.99951 -0.11719,-4.59375 0.104,-6.52881l0.2124,-0.36475c0.37207,-0.23145 0.85986,-0.89355 1.42529,-1.33594z" fill="#c8010b"/><path d="M220.27441,169.19824l0.35303,-0.01611c-0.22119,1.93506 -0.12598,4.5293 -0.104,6.52881c0.02344,2.03613 -0.03662,4.58643 0.11572,6.58447l-0.37646,0.02197c-0.53174,-1.33887 -0.30322,-11.33057 0.01172,-13.11914z" fill="#ec0415"/><path d="M159.65186,103.21304c-0.02051,-0.94438 -0.34863,-2.60024 0.73682,-2.7646l0.89502,0.63413c0.43213,0.42026 0.84668,0.77197 1.16895,1.27881c-0.15674,2.02603 -0.08789,4.89653 -0.10986,6.99126c-0.04102,5.29717 -0.0498,10.59463 -0.02344,15.89194c0.07471,14.05781 0.03809,28.11577 -0.10986,42.17241c-0.01025,4.7124 0.07178,9.43652 -0.05273,14.14307c-0.00293,0.13477 -0.47754,0.49072 -0.60059,0.57129c-0.12744,0.38965 -0.27686,0.57422 -0.15527,0.8584l0.15527,-0.13184l0.20947,-0.0293c0.11426,-0.17139 0.3501,-0.44385 0.48779,-0.61523l42.87158,0.01172l10.1001,-0.01465c0.91113,-0.00146 4.40918,-0.0542 5.0376,0.10693l0.37646,-0.02197l0.14941,0.13184c0.8584,0.38818 0.97412,0.60498 1.4165,1.45166c-0.2915,0.25781 -0.42187,0.33545 -0.60937,0.67529c-0.25195,0.854 -1.8457,2.77881 -2.18848,2.77588c-2.84473,-0.02344 -7.44434,-0.0542 -10.11621,-0.05566c-15.1626,0.11133 -30.32666,0.10254 -45.48926,-0.0249c-0.83203,-0.01465 -2.75537,0.05273 -3.35596,-0.4541c-0.38965,-0.11865 -0.39551,-0.10693 -0.73096,-0.32812l-0.01611,-0.42334c-0.09814,-1.92334 0.08496,-4.77246 0.09229,-6.80713l-0.01025,-15.38232c-0.0249,-19.12383 0.14063,-38.47676 -0.12012,-57.58081z" fill="url(#color-19)"/><path d="M159.65186,103.21304c-0.02051,-0.94438 -0.34863,-2.60024 0.73682,-2.7646l0.89502,0.63413c0.43213,0.42026 0.84668,0.77197 1.16895,1.27881c-0.15674,2.02603 -0.08789,4.89653 -0.10986,6.99126c-0.04102,5.29717 -0.0498,10.59463 -0.02344,15.89194c0.07471,14.05781 0.03809,28.11577 -0.10986,42.17241c-0.01025,4.7124 0.07178,9.43652 -0.05273,14.14307c-0.00293,0.13477 -0.47754,0.49072 -0.60059,0.57129c-0.12744,0.38965 -0.27686,0.57422 -0.15527,0.8584l0.15527,-0.13184l0.26953,0.49365c0.81885,0.10254 2.53271,0.05273 3.41016,0.05273l6.11572,-0.00146l21.72656,-0.00732c2.72461,0 8.41406,-0.16406 10.97754,0.0791c-14.05371,0.28564 -28.6084,-0.02197 -42.71777,0.04834c-0.86279,0.9082 -1.0957,1.34473 -1.63916,2.521c-0.09814,-1.92334 0.08496,-4.77246 0.09229,-6.80713l-0.01025,-15.38232c-0.0249,-19.12383 0.14063,-38.47676 -0.12012,-57.58081z" fill="#c8010b"/><path d="M161.28369,101.08257c0.43213,0.42026 0.84668,0.77197 1.16895,1.27881c-0.15674,2.02603 -0.08789,4.89653 -0.10986,6.99126c-0.04102,5.29717 -0.0498,10.59463 -0.02344,15.89194c0.07471,14.05781 0.03809,28.11577 -0.10986,42.17241c-0.01025,4.7124 0.07178,9.43652 -0.05273,14.14307c-0.00293,0.13477 -0.47754,0.49072 -0.60059,0.57129c-0.07471,-0.7207 -0.04102,-1.55273 -0.06885,-2.28955c-0.23877,-6.40869 -0.17432,-12.84229 -0.18018,-19.25684l0.00586,-42.19116l0.03955,-11.55571c0.00732,-1.41284 0.15088,-4.5249 -0.06885,-5.75552z" fill="url(#color-20)"/><path d="M219.33398,186.92578c0.75732,-0.60059 1.48535,-1.61279 2.26172,-2.37158c-0.25195,0.854 -1.8457,2.77881 -2.18848,2.77588c-2.84473,-0.02344 -7.44434,-0.0542 -10.11621,-0.05566c-15.1626,0.11133 -30.32666,0.10254 -45.48926,-0.0249c-0.83203,-0.01465 -2.75537,0.05273 -3.35596,-0.4541c1.18652,-0.11719 4.72266,-0.00439 6.10107,0.00293l12.71631,0.06299z" fill="#02122d"/><path d="M220.2627,182.31738l0.37646,-0.02197l0.14941,0.13184c-0.20508,0.15527 -0.24609,0.19043 -0.51709,0.19189c-5.15771,0.01904 -10.3374,0.02197 -15.49512,0.0249l-30.41016,-0.00439l-7.60547,-0.00439c-1.32422,0 -3.80273,-0.07178 -4.99512,0.19336c0.11426,-0.17139 0.3501,-0.44385 0.48779,-0.61523l42.87158,0.01172l10.1001,-0.01465c0.91113,-0.00146 4.40918,-0.0542 5.0376,0.10693z" fill="#280000"/><path d="M220.98926,100.42632c0.17432,2.12256 0.03955,5.76255 0.02783,8.02749c0.01172,2.40806 0.0835,5.13237 -0.01172,7.51421c-0.73242,0.91641 -2.48877,3.20156 -3.26514,3.86514c-5.50049,0.01685 -11.12402,-0.02827 -16.61279,0.0873c-6.14941,0.12935 -12.90674,0.40562 -19.02246,0.07412c-0.87012,0.41968 -2.25,-0.25781 -2.41699,0.27612c-0.8877,2.85 -0.37061,6.31245 -0.64746,9.25356c-0.1333,-4.21084 -0.04541,-8.83857 -0.04687,-13.08047c-0.35449,-0.13169 -0.55811,-0.12759 -0.93457,-0.17388l-0.18311,-0.24214c-0.0249,-0.43594 -0.10986,-0.77168 0.13184,-1.1083c1.24951,-0.20493 5.14893,-0.08262 6.59766,-0.0564c3.44385,-0.00088 8.26758,0.14751 11.5957,-0.03794l13.47217,0.03984c1.89697,0.00249 5.24121,0.11396 7.04736,-0.01743c0.81738,-0.16772 1.73145,-0.14722 2.5752,-0.16641c-0.16113,-3.67866 0.17139,-8.60303 -0.09814,-12.04849l0.43359,-0.68188c0.15088,-0.13491 1.02686,-1.18887 1.35791,-1.52446z" fill="url(#color-21)"/><path d="M196.20117,114.82515l13.47217,0.03984c1.89697,0.00249 5.24121,0.11396 7.04736,-0.01743l2.42871,0.17842c-0.66943,0.42861 -2.25879,0.35566 -3.07324,0.3665c-10.41504,0.13843 -20.88721,-0.17373 -31.29785,-0.0063c-0.5332,-0.02563 -0.75879,-0.00132 -1.2583,-0.21284c0.33398,-0.271 0.5918,-0.22646 1.08545,-0.31025c3.44385,-0.00088 8.26758,0.14751 11.5957,-0.03794z" fill="#280000"/><path d="M219.63135,101.95078c0.5083,0.21855 0.54199,0.18779 0.83936,0.67119c0.25049,3.42495 -0.04248,8.95474 -0.01172,12.72773c-0.4043,-0.14033 -0.91113,-0.37646 -1.30957,-0.32373l-2.42871,-0.17842c0.81738,-0.16772 1.73145,-0.14722 2.5752,-0.16641c-0.16113,-3.67866 0.17139,-8.60303 -0.09814,-12.04849z" fill="#c8010b"/><path d="M186.43359,116.4665c5.28076,0.1793 11.6499,-0.22705 16.69336,0.06489c-1.75781,0.17681 -4.56885,0.09287 -6.40723,0.08906l-10.85742,-0.03179c-1.31689,-0.00557 -4.58643,-0.10928 -5.6748,0.09434c0.27686,0.10034 0.40576,0.20112 0.63428,0.38599c0.21094,0.94775 -0.56836,1.24849 -0.22412,2.00815l0.83057,0.03369l0.03662,0.05054l-1.66553,0.23188c0.09082,0.01919 3.11719,0.20815 3.7207,0.27275c-0.50977,0.07148 -1.00342,0.04629 -1.41504,0.32856c-0.87012,0.41968 -2.25,-0.25781 -2.41699,0.27612c-0.8877,2.85 -0.37061,6.31245 -0.64746,9.25356c-0.1333,-4.21084 -0.04541,-8.83857 -0.04687,-13.08047c1.25391,0.05815 6.30469,0.17065 7.43994,0.02271z" fill="#500000"/><path d="M178.99365,116.4438c-0.35449,-0.13169 -0.55811,-0.12759 -0.93457,-0.17388l-0.18311,-0.24214c-0.0249,-0.43594 -0.10986,-0.77168 0.13184,-1.1083c1.24951,-0.20493 5.14893,-0.08262 6.59766,-0.0564c-0.49365,0.08379 -0.75146,0.03926 -1.08545,0.31025c0.49951,0.21152 0.7251,0.18721 1.2583,0.21284c-2.77148,0.07515 -3.10547,-0.421 -5.55176,0.51372l-0.03955,0.14854c0.47754,0.26851 5.70117,-0.11968 7.24658,0.41807c-1.13525,0.14795 -6.18604,0.03545 -7.43994,-0.02271z" fill="#730001"/><path d="M220.98926,100.42632c0.17432,2.12256 0.03955,5.76255 0.02783,8.02749c-0.60645,-1.39878 0.00732,-5.4085 -0.41602,-6.05479l0.14355,0.28916c-0.05859,-0.39814 0.03223,-0.28066 -0.17578,-0.53643l-0.09814,0.47021c-0.29736,-0.4834 -0.33105,-0.45264 -0.83936,-0.67119c0.15088,-0.13491 1.02686,-1.18887 1.35791,-1.52446z" fill="#ec0415"/><path d="M184.80029,100.34619c9.19043,0.16919 19.51758,0.19263 28.74316,0.08159l2.26025,0.00381c0.93311,0.00615 4.45166,0.08906 5.18555,-0.00527c-0.33105,0.3356 -1.20703,1.38955 -1.35791,1.52446l-0.43359,0.68188c-0.12598,0.46479 -0.0293,0.62666 -0.24609,1.18081l-0.07471,-1.43584c-3.08936,-0.17241 -7.31396,-0.04014 -10.52051,-0.03809l-20.33936,-0.00864l-16.88965,-0.05625c-2.08154,-0.0022 -6.46875,-0.12642 -8.43457,0.06328l-0.24023,0.02344c-0.32227,-0.50684 -0.73682,-0.85854 -1.16895,-1.27881l-0.89502,-0.63413c5.44922,-0.07617 10.89697,-0.09727 16.34619,-0.06328c2.57373,0.00176 5.52686,0.06826 8.06543,-0.03896z" fill="#fe586a"/><path d="M179.03906,133.25845c2.76855,-0.1604 5.95313,-0.09946 8.75391,-0.1002l13.70654,-0.00161l9.04248,-0.00498c0.81445,-0.00278 4.50879,-0.13594 4.97314,0.18662l-0.52148,0.26777c-1.07227,0.22017 -1.14844,0.81709 -1.45312,0.82324c-3.67383,0.07339 -8.41699,0.01685 -12.00732,0.0022c-7.59375,-0.03105 -14.84473,0.04102 -22.40479,0.00894c-0.5083,-0.00205 -0.84521,-0.02739 -1.31689,-0.23159z" fill="#fe3240"/><path d="M177.66357,114.68101c3.62988,0.04321 7.25977,0.06504 10.89111,0.06533c2.25439,-0.00366 5.48145,-0.08657 7.64648,0.07881c-3.32812,0.18545 -8.15186,0.03706 -11.5957,0.03794c-1.44873,-0.02622 -5.34814,-0.14854 -6.59766,0.0564c-0.2417,0.33662 -0.15674,0.67236 -0.13184,1.1083l0.18311,0.24214c0.37646,0.04629 0.58008,0.04219 0.93457,0.17388c0.00146,4.24189 -0.08643,8.86963 0.04688,13.08047l-0.00146,3.73418l-1.22754,0.95039l-0.18896,-0.02944c0.17285,-1.36494 0.08057,-5.00376 0.07764,-6.50288z" fill="#c8010b"/><path d="M177.31787,134.54443c0.00293,-1.01821 0.01611,-2.03628 0.03809,-3.05405c0.20654,0.88169 0.03076,1.71475 0.2666,2.68901l0.18896,0.02944c0.47168,0.2042 0.80859,0.22954 1.31689,0.23159c7.56006,0.03208 14.81104,-0.03999 22.40479,-0.00894c3.59033,0.01465 8.3335,0.07119 12.00732,-0.0022c0.30469,-0.00615 0.38086,-0.60308 1.45313,-0.82324c-0.41748,0.43682 -0.8335,0.87627 -1.24658,1.31836c-0.53467,-0.29751 -3.10693,-0.28345 -3.65479,-0.05259l-0.7749,0.0416c-2.45068,-0.11748 -5.36426,-0.04717 -7.86768,-0.04731l-14.02295,0.01187c-2.95166,0.00264 -7.32275,0.13037 -10.10889,-0.33354z" fill="#fe8491"/><path d="M83.01167,114.8603l-0.12832,-0.17227c0.21299,-0.43857 0.70884,-0.90161 1.06802,-1.56064c0.00234,-0.11074 0.00454,-0.22148 0.00688,-0.33223c-0.84565,-0.44399 -2.02471,-0.83232 -2.62588,-1.57881c-0.31553,-2.68242 2.61519,-11.38022 3.37324,-14.39019c0.36987,-1.46807 0.54624,-4.38105 0.96079,-5.60229c1.31982,-3.88828 2.86201,-9.05698 5.03862,-12.53423c1.45518,-2.32471 4.45269,-5.57461 6.46157,-7.5c1.05996,-0.90234 2.35283,-1.6897 3.46655,-2.51001c3.80464,-2.80239 7.70684,-5.35313 12.12554,-7.08047c1.00005,-0.39111 3.82383,-1.84058 4.79941,-1.47231c0.98145,-0.66577 3.06973,-1.73481 4.23179,-1.80938c0.39492,-0.02534 0.1585,-0.08115 0.55313,0.22339l0.00044,0.20303l-0.32036,0.06196l0.0709,-0.0123l-0.47168,0.13799c2.30039,-0.17153 4.63096,-1.89697 7.64048,-2.06953c-0.01641,-0.36299 -0.05142,-0.20537 0.0627,-0.48032c0.63765,-0.39023 1.37563,-0.73784 2.06821,-0.28447l-0.07368,0.35391c1.09688,-0.0564 2.61563,-0.92637 3.75571,-0.51123c-2.20093,0.55737 -4.57734,0.86689 -6.8146,1.44126c-8.20386,2.10615 -15.9564,5.00728 -23.07202,9.6498c-1.40229,0.91494 -3.51211,2.36265 -4.69102,3.50566c-4.28555,3.34307 -8.34873,9.47886 -9.28184,14.89248c-0.58433,1.03799 -0.45513,4.84058 -0.41895,6.08071c0.10679,3.64878 1.34824,7.04722 3.20479,10.1584c0.38921,0.65215 1.02993,1.75386 1.28423,2.44014c0.53042,-0.21636 1.08398,-0.53364 1.60063,-0.48677c-2.13472,1.45811 -3.85356,2.26582 -6.18882,3.97866l-0.20552,-0.10005c-2.15464,1.37871 -6.04644,5.3042 -7.48096,7.36011z" fill="#02509d"/><path d="M117.83906,198.6665c1.24116,-2.35547 3.93589,-3.55078 6.5146,-2.89014c2.57871,0.65918 4.36787,3.00146 4.32554,5.66309c0.652,1.4707 -0.13535,3.20068 -1.28423,4.18652c-1.7915,1.60547 -3.75732,2.42871 -6.19102,1.80762c-1.51758,-0.39111 -2.81689,-1.37109 -3.61128,-2.72168c-0.78838,-1.35352 -1.31587,-5.22363 0.24639,-6.04541z" fill="#eeeef0"/><path d="M127.39497,205.62598c-1.7915,1.60547 -3.75732,2.42871 -6.19102,1.80762c-1.51758,-0.39111 -2.81689,-1.37109 -3.61128,-2.72168c-0.78838,-1.35352 -1.31587,-5.22363 0.24639,-6.04541c-1.40259,2.66016 -0.51885,5.95166 2.02764,7.55273c2.54634,1.59961 5.89585,0.96826 7.68486,-1.44873c0.02021,0.46436 0.03472,0.43506 -0.15659,0.85547z" fill="#06050d"/><path d="M128.6792,201.43945c0.652,1.4707 -0.13535,3.20068 -1.28423,4.18652c0.19131,-0.42041 0.17681,-0.39111 0.15659,-0.85547c0.71426,-0.96533 1.10859,-2.12988 1.12764,-3.33105z" fill="#02122d"/><path d="M120.05039,199.6084c0.39683,-0.79248 0.74019,-1.2334 1.59214,-1.5542c4.76719,-1.79736 6.44355,5.54443 2.04141,6.74414c-1.69512,0.46143 -2.97378,-0.49365 -3.80947,-1.84863c-0.08774,-0.27686 -0.16318,-0.55518 -0.22617,-0.83789c-0.18838,-0.88477 -0.07427,-1.73437 0.4021,-2.50342z" fill="#02509d"/><path d="M120.05039,199.6084c0.39683,-0.79248 0.74019,-1.2334 1.59214,-1.5542c4.76719,-1.79736 6.44355,5.54443 2.04141,6.74414c-1.69512,0.46143 -2.97378,-0.49365 -3.80947,-1.84863l0.30454,-0.16113c0.80537,1.48096 1.65044,1.61865 3.19292,1.91016c1.69482,-0.78516 2.75889,-2.15479 2.42783,-4.18506c-0.07075,-0.43359 -0.45806,-1.09424 -0.83276,-1.34033c-1.67856,-1.64795 -3.2937,-0.87451 -4.79282,0.53467z" fill="#06050d"/><path d="M120.05039,199.6084l0.12378,0.09961c1.49912,-1.40918 3.11426,-2.18262 4.79282,-0.53467c-3.53862,-0.98291 -4.9749,-0.27539 -4.78799,3.61523l-0.30454,0.16113c-0.08774,-0.27686 -0.16318,-0.55518 -0.22617,-0.83789c-0.18838,-0.88477 -0.07427,-1.73437 0.4021,-2.50342z" fill="#042a61"/><path d="M192.65039,195.86865l2.17822,-0.01611c-0.00293,2.42871 -0.1626,9.08936 0.09375,11.09033c-0.03076,0.28125 0.01025,0.14063 -0.2915,0.39844c-0.6416,0.13184 -1.68164,0.17578 -2.29395,-0.09375c-0.68994,-0.75146 0.08789,-3.4292 -1.04004,-3.91406c-0.83643,0.70605 -1.19238,3.37793 -2.87549,3.06152c-0.2959,-0.06152 -0.68555,-0.25488 -0.78809,-0.57422c-0.39258,-1.2334 -2.25293,-1.73291 -1.94385,-3.17285c0.08789,-0.40576 0.08057,-0.72363 0.08496,-1.11328c-0.2373,-0.40723 -0.48779,-0.8584 -0.73828,-1.25391c0.2124,1.68018 0.13477,4.77246 0.13916,6.57568l-2.3584,-0.01172l-0.00293,-10.96875l2.45801,-0.00879c0.54053,1.31104 2.71875,5.48291 3.55518,6.63428c1.19678,-2.08887 2.56201,-4.62158 3.82324,-6.63281z" fill="#eeeef0"/><path d="M185.77441,201.53467c3.73828,7.04004 3.49658,4.34912 6.70313,-1.05322l-0.01172,6.38818c0.7251,-0.00586 1.771,-0.05713 2.45654,0.07324c-0.03076,0.28125 0.01025,0.14063 -0.2915,0.39844c-0.6416,0.13184 -1.68164,0.17578 -2.29395,-0.09375c-0.68994,-0.75146 0.08789,-3.4292 -1.04004,-3.91406c-0.83643,0.70605 -1.19238,3.37793 -2.87549,3.06152c-0.2959,-0.06152 -0.68555,-0.25488 -0.78809,-0.57422c-0.39258,-1.2334 -2.25293,-1.73291 -1.94385,-3.17285c0.08789,-0.40576 0.08057,-0.72363 0.08496,-1.11328z" fill="#02122d"/><path d="M148.25537,196.4502l0.20068,-0.38232c0.84521,-0.23437 6.65771,-0.13037 7.979,-0.12158c-0.00293,0.54785 -0.04248,1.6626 0.04834,2.15625l0.07324,0.18896c-0.89941,0.75146 -4.91455,-0.00146 -5.80078,0.44092c0.04541,0.48047 0.0293,1.18799 0.271,1.51758c1.50879,0.08496 3.1582,0.01172 4.67871,-0.02344c0.01172,0.66211 -0.00439,1.37402 0.12012,2.01709l0.13916,-0.10986c-0.14648,1.34619 -3.66943,0.79541 -4.65967,0.60645l-0.22852,0.15381c-0.09229,0.57129 0.06152,1.00781 0.19043,1.57764l0.11572,0.03223l0.18164,-0.31055c0.94775,0.56836 1.11768,-0.13477 2.1416,0.57861l2.73193,-0.00439c0.02051,0.65039 0.10254,1.38721 -0.09521,1.98633l-0.2959,0.14502l0.33252,0.16553l-0.07178,0.15381c-1.17773,0.27686 -7.08105,0.43506 -8.23682,-0.06738c-0.17578,-2.4082 -0.14795,-4.79004 -0.08203,-7.19971c0.03223,-1.18799 -0.06885,-2.4668 0.06738,-3.63867z" fill="#eeeef0"/><path d="M155.82568,202.24365l0.13916,-0.10986c-0.14648,1.34619 -3.66943,0.79541 -4.65967,0.60645l-0.22852,0.15381c-0.09229,0.57129 0.06152,1.00781 0.19043,1.57764l0.11572,0.03223l0.18164,-0.31055c0.94775,0.56836 1.11768,-0.13477 2.1416,0.57861l-2.83008,0.01025l-0.02344,-2.57666c1.6582,0.06006 3.31348,0.04248 4.97314,0.03809z" fill="#042a61"/><path d="M148.38428,206.83594c2.40527,-0.00439 5.2998,-0.0791 7.6626,0.06299l0.33252,0.16553l-0.07178,0.15381c-1.17773,0.27686 -7.08105,0.43506 -8.23682,-0.06738z" fill="#06050d"/><path d="M148.0708,207.15088c-0.17578,-2.4082 -0.14795,-4.79004 -0.08203,-7.19971c0.03223,-1.18799 -0.06885,-2.4668 0.06738,-3.63867l0.19922,0.1377c0.27393,1.40771 0.1377,8.58545 0.12891,10.38574z" fill="#042a61"/><path d="M156.4834,198.10254l0.07324,0.18896c-0.89941,0.75146 -4.91455,-0.00146 -5.80078,0.44092c0.03223,-0.15088 0.11133,-0.36182 0.1626,-0.51562c0.82764,-0.37061 4.48828,-0.15234 5.56494,-0.11426z" fill="#02122d"/><path d="M173.72607,195.86426c0.81885,0.01465 1.67285,0.00146 2.49609,0.00146c1.36084,3.65186 3.22559,7.29199 4.58496,10.97168l-2.60742,0.00586l-0.54199,-1.2832c-1.54541,-0.36035 -3.375,-0.26514 -4.9834,-0.26074l-0.28711,0.73682c-0.11865,0.30762 -0.21533,0.62402 -0.45996,0.8584c-1.04004,0.99756 -4.74023,0.62695 -6.14355,0.51709c-0.82617,-1.01514 -1.97168,-3.31934 -2.89746,-3.67676l0.36768,-0.42041c0.72363,0.16113 2.07275,2.77881 2.62354,3.52002l2.78906,-0.00879l0.3457,0.0791c1.38574,-3.56543 3.18896,-7.48535 4.71387,-11.04053z" fill="url(#color-22)"/><path d="M162.88623,203.73486l0.36768,-0.42041c0.72363,0.16113 2.07275,2.77881 2.62354,3.52002l2.78906,-0.00879l0.3457,0.0791l2.63818,-0.04834c0.32227,-0.80273 0.65625,-1.60107 1.00342,-2.39355c1.38281,0.03369 3.02197,-0.21826 4.32715,0.08643c0.41455,0.09668 0.50391,0.58887 0.67676,1.01074c-1.54541,-0.36035 -3.375,-0.26514 -4.9834,-0.26074l-0.28711,0.73682c-0.11865,0.30762 -0.21533,0.62402 -0.45996,0.8584c-1.04004,0.99756 -4.74023,0.62695 -6.14355,0.51709c-0.82617,-1.01514 -1.97168,-3.31934 -2.89746,-3.67676z" fill="#06050d"/><path d="M174.85986,198.56836c0.44385,0.38525 1.45166,3.14795 1.70361,3.82324c-0.29736,0.26514 -0.36768,0.16699 -0.89209,0.17725l-2.34082,-0.03223z" fill="url(#color-23)"/><path d="M106.67666,196.89258c2.77061,-1.46631 4.81831,-1.63184 7.7228,-0.44678l0.00952,2.58398l0.12041,0.25342c-1.45796,0.56689 -3.82031,-3.23584 -7.10098,1.29492l-0.10781,-0.06299c-0.81768,3.71191 1.90283,4.3667 4.88262,4.25684c0.01743,-1.16748 0.02461,-2.33496 0.02183,-3.50098l2.32969,-0.00146c-0.00117,1.19531 -0.06475,3.93018 0.05098,4.99072c0.0791,0.28857 0.07383,0.13477 -0.10825,0.47461c-1.04414,0.60498 -3.22544,0.91113 -4.42954,0.83936c-1.70493,-0.11133 -3.29004,-0.91553 -4.38691,-2.2251c-2.05869,-2.47705 -1.7146,-6.46875 0.80889,-8.49609z" fill="#eeeef0"/><path d="M114.60571,206.26025c0.0791,0.28857 0.07383,0.13477 -0.10825,0.47461c-1.04414,0.60498 -3.22544,0.91113 -4.42954,0.83936c-1.70493,-0.11133 -3.29004,-0.91553 -4.38691,-2.2251c-2.05869,-2.47705 -1.7146,-6.46875 0.80889,-8.49609l0.18677,0.03955c-0.81152,1.18652 -1.58994,1.7915 -1.80352,3.32227c-0.32769,2.34814 0.29385,4.55127 2.36426,5.89453c1.92993,1.25098 5.31973,1.13818 7.36831,0.15088z" fill="#06050d"/><path d="M107.32061,200.51514c0.53833,-3.63281 4.73452,-2.95312 7.08838,-1.48535l0.12041,0.25342c-1.45796,0.56689 -3.82031,-3.23584 -7.10098,1.29492z" fill="#02122d"/><path d="M135.30967,202.58643c0.91509,-1.41357 2.58179,-6.30469 3.21182,-6.7251c0.65054,-0.02051 2.0272,-0.14648 2.52422,0.16406l0.0208,0.47021c0.23555,0.58301 -0.6769,2.48584 -0.96987,3.07324c-1.14126,2.28809 -1.93711,5.36719 -3.21753,7.52783c-0.72217,0.58594 -2.04448,0.36328 -3.00176,0.31348c-0.76523,-1.28467 -4.66099,-10.35059 -4.34531,-11.1958l0.11323,-0.2417c0.87773,-0.15234 1.60225,-0.12158 2.47061,0.0498c0.2376,0.26807 0.24858,0.26367 0.39785,0.58594l0.19072,0.04395c0.77886,0.97266 2.10322,4.64063 2.60522,5.93408z" fill="#eeeef0"/><path d="M129.53203,196.21436c1.36084,2.67334 3.38262,7.771 4.4146,10.63037l2.75771,0.03955c0.73477,-1.87793 3.43784,-8.82422 4.36216,-10.38867c0.23555,0.58301 -0.6769,2.48584 -0.96987,3.07324c-1.14126,2.28809 -1.93711,5.36719 -3.21753,7.52783c-0.72217,0.58594 -2.04448,0.36328 -3.00176,0.31348c-0.76523,-1.28467 -4.66099,-10.35059 -4.34531,-11.1958z" fill="#06050d"/><path d="M135.30967,202.58643c0.91509,-1.41357 2.58179,-6.30469 3.21182,-6.7251c-0.4834,2.01709 -2.41392,5.84766 -3.16655,8.26465c-0.61011,-2.39648 -2.05649,-5.15479 -2.84121,-7.51758l0.19072,0.04395c0.77886,0.97266 2.10322,4.64063 2.60522,5.93408z" fill="#02122d"/><path d="M165.71924,195.91553c0.9624,0.00586 1.9248,-0.00732 2.88721,-0.03955l-3.71191,5.42871c1.35059,1.88965 2.49316,3.60059 3.77197,5.521l-2.78906,0.00879c-0.55078,-0.74121 -1.8999,-3.35889 -2.62354,-3.52002l-0.36768,0.42041c-0.63721,1.00342 -1.3418,2.07275 -1.9248,3.10107l-2.98096,-0.01465c0.30615,-0.46143 0.9375,-1.35498 1.17773,-1.80615c-0.00879,-0.68408 1.67578,-2.81836 2.14453,-3.47314c-0.59766,-1.07666 -3.01758,-3.9873 -2.77148,-4.93066l-0.2168,-0.45117c0.50391,-0.42187 1.86768,-0.25049 2.60742,-0.27246c0.84229,1.19531 1.66406,2.40381 2.46533,3.62695z" fill="#eeeef0"/><path d="M161.30273,201.54199c-0.59766,-1.07666 -3.01758,-3.9873 -2.77148,-4.93066c1.06934,1.52344 2.33496,3.26807 3.24316,4.88086c-0.68115,0.92871 -1.90869,2.71436 -2.61621,3.52295c-0.00879,-0.68408 1.67578,-2.81836 2.14453,-3.47314z" fill="#06050d"/><path d="M175.27148,242.62061l0.16113,-0.04687l0.05127,0.104c-5.34229,1.79883 -11.75537,2.15039 -17.32031,3.09082c0.75439,-0.12744 -4.50732,1.67139 -4.05469,1.4751l-0.09375,0.25195c0.7998,0.09814 3.52148,-0.12744 4.37549,-0.21387c5.82275,-0.5874 11.52979,-1.70947 17.20605,-3.1084c1.25537,-0.31055 2.7334,-0.5918 3.95361,-1.01221c0.4541,-0.15674 1.22754,-0.48926 1.68018,-0.35449c-0.98877,0.6665 -5.04199,1.37402 -6.49951,1.74902c-14.18994,3.65186 -27.22705,4.40479 -41.68887,1.68311c-0.81753,-0.03076 -7.77422,-1.39307 -8.40718,-1.65527c0.69668,-0.1084 8.81909,1.60107 10.47788,1.81494c4.31382,0.55957 8.90771,1.45752 13.37695,1.16602c1.02686,-0.06592 2.48877,0.35449 3.65332,0.06152l0.14063,-0.33105l-0.10693,-0.25928l-0.17725,-0.0542l0.01318,-0.13623l0.00586,0.00146c-0.01904,0.19922 -0.03662,0.39844 -0.0542,0.59766l-0.24463,0.16113c-0.99902,-0.25195 -1.76807,0.10986 -2.37012,-0.83203c-0.07617,-0.11865 -0.55371,-0.65479 -0.71484,-0.67822c-2.423,-0.33838 -4.89434,-0.24609 -7.32993,-0.44238c-3.00527,-0.23877 -5.99502,-0.64453 -8.95547,-1.21436l0.02285,-0.16553c13.50029,2.73486 29.5897,1.6582 42.89927,-1.65234z" fill="#cdced1"/><path d="M52.0437,170.11816c0.33105,0.46582 2.83374,8.75977 3.45425,10.38281c3.04717,7.97461 7.25054,15.23584 12.11147,22.24219c0.6835,0.98584 2.21704,2.80518 2.51104,3.58154l-0.27026,-0.04687c-0.42334,-0.81738 -1.88408,-2.68066 -2.47456,-3.56982c-1.59785,-2.40234 -3.45688,-4.98193 -4.83984,-7.50146c-1.33052,-0.12744 -2.23096,-1.76221 -1.79883,-2.76709c-0.04204,-0.25928 -0.69639,-1.55859 -0.85605,-1.93799c-0.25327,-0.00732 -0.11733,-0.0249 -0.40957,0.06738c-0.5606,-0.62402 -1.748,-2.40967 -1.84717,-3.09375c-0.30059,-2.07275 -1.09175,-2.02881 -2.04551,-3.47021c-0.31743,-0.479 0.02065,-2.71582 -0.25972,-3.5376c-0.60366,-1.76953 -3.26792,-8.79639 -3.27524,-10.34912z" fill="#cdced1"/><path d="M224.55029,78.92095c0.74121,0.81416 1.34473,1.46411 2.146,2.21484c-0.34277,-1.06802 -1.50146,-1.81597 -1.52783,-2.49097c1.16309,-1.07593 1.73291,-0.52383 2.78174,-1.12734c2.47852,2.1665 11.3584,13.47305 12.36621,16.37329c2.87695,4.73262 4.54395,7.823 6.8877,12.79526c6.64893,15.70181 9.24756,28.71431 8.81982,45.92725c-0.12598,0.27832 -0.5127,6.62402 -0.59473,7.47217c-0.90088,9.29004 -3.06592,17.95752 -6.69287,26.55908c-0.99023,2.34668 -2.53711,4.83545 -3.64453,7.15869c-9.92432,20.08008 -23.71143,35.03174 -43.35498,46.07813c-5.61914,3.1582 -11.51514,5.79639 -17.61475,7.87939c-2.41113,0.82031 -5.73486,1.62598 -7.86035,2.42432c-7.9043,1.78125 -16.16455,3.21826 -24.28271,3.39697c-0.71191,-0.12451 -4.66553,-0.10547 -5.7501,-0.14648c-3.56748,-0.17139 -7.12515,-0.50537 -10.66187,-1.00342c-20.73428,-3.12158 -40.8895,-12.73535 -56.42769,-26.83008c-16.76997,-15.21387 -30.04556,-37.91162 -33.61699,-60.375c-0.65229,-4.14551 -1.06069,-8.32617 -1.22329,-12.52002c-0.08335,-2.55908 -0.01069,-5.13135 -0.09404,-7.696c-0.09053,-1.70728 0.22075,-4.85361 0.4147,-6.60234c0.52061,-5.05181 1.38296,-10.06274 2.5812,-14.9981c2.66602,-10.94048 7.18447,-21.34424 13.35967,-30.76055c0.5606,-0.85913 1.52505,-2.82319 2.26304,-3.27026c-0.17197,0.70049 -1.23574,2.77603 -1.66992,3.39565c1.86694,1.09102 1.66216,-0.12847 3.10342,-0.84946l0.21768,0.13975c-0.03896,0.30732 -0.08115,0.50273 -0.1437,0.80537c-0.45615,0.25503 -2.01753,2.86831 -2.00566,3.34395c1.15063,-0.78252 1.14741,-2.36763 2.35137,-2.9064c-2.67773,4.26489 -4.61133,7.41885 -6.81899,12.01597c-9.70591,19.97769 -12.35728,42.65391 -7.52153,64.33213c4.29595,18.11133 13.39497,34.72852 26.3395,48.104c2.79917,2.85059 5.74746,5.51953 8.85059,8.03174c0.52544,0.42627 2.49009,1.89697 2.83755,2.32617c13.80894,9.94043 26.75581,15.97559 43.62041,19.14697c2.9395,0.55371 5.82363,0.72363 8.71816,1.19092c0.78911,-0.03662 3.53481,0.27393 4.69336,0.30762c5.45083,0.15234 10.10464,0.08496 15.50845,-0.44824c6.02051,-0.60937 9.7207,-1.71387 15.34277,-2.79932c3.14063,-1.08545 6.09521,-1.80469 9.4248,-3.03516c11.55908,-4.25537 22.25098,-10.57324 31.5542,-18.64746c19.48828,-16.57471 32.58984,-42.23584 34.64355,-67.75342c1.8457,-21.8168 -3.73828,-43.61719 -15.84814,-61.85859c-3.23437,-4.9084 -5.9209,-8.18452 -9.68994,-12.61157c-0.37207,-0.23423 -1.57178,-1.65879 -1.94092,-2.07656z" fill="url(#color-24)"/><path d="M224.55029,78.92095c0.74121,0.81416 1.34473,1.46411 2.146,2.21484c-0.34277,-1.06802 -1.50146,-1.81597 -1.52783,-2.49097c1.16309,-1.07593 1.73291,-0.52383 2.78174,-1.12734c2.47852,2.1665 11.3584,13.47305 12.36621,16.37329c-0.04102,2.3042 4.51758,4.61104 1.10303,6.66167c-0.28564,0.17124 -0.07031,0.75352 -0.35742,1.26958c-1.2041,-1.5583 -2.62354,-4.34531 -3.56543,-5.93452c-1.38281,-2.33394 -9.3252,-13.61177 -11.16504,-14.2771c-0.37207,-0.23423 -1.57178,-1.65879 -1.94092,-2.07656z" fill="#02509d"/><path d="M88.36392,228.11865c13.80894,9.94043 26.75581,15.97559 43.62041,19.14697c2.9395,0.55371 5.82363,0.72363 8.71816,1.19092c-1.34722,0.57861 -5.24429,-0.60791 -6.72612,-0.56543c-1.76968,0.05127 -2.90083,-0.43506 -4.6437,-0.78076c-6.13403,-1.21143 -12.3832,-3.10986 -18.1749,-5.47998c-3.17241,-1.2876 -6.27524,-2.74072 -9.29575,-4.35205c-1.91968,-1.01807 -12.86514,-7.65088 -13.4981,-9.15967z" fill="#02122d"/><path d="M160.9043,248.31592c6.02051,-0.60937 9.7207,-1.71387 15.34277,-2.79932l-0.01318,0.28564c-4.0166,0.88037 -8.02002,1.771 -12.04395,2.60449c-0.76318,0.15674 -2.67334,-0.03369 -3.24902,0.22998z" fill="#02122d"/><path d="M109.39995,48.34731c3.74502,-1.72778 9.69141,-3.43374 13.66934,-4.43921c21.41807,-5.52715 44.01519,-4.36714 64.75444,3.32388c3.22705,1.18931 7.76953,3.13022 10.78857,4.7792c-0.51855,0.11938 -7.03418,-3.13271 -9.11719,-3.51343c-0.15234,-0.23203 -0.24756,-0.36899 -0.45996,-0.54697c-0.56396,0.00103 -0.85547,0.27642 -1.3374,0.59063l-1.6875,-0.28271l0.00293,0.17051c0.68262,0.44487 5.09033,2.10996 6.2373,2.56641c2.92383,1.16382 16.35938,8.30918 17.521,10.06011c13.67871,9.49072 24.36768,19.9894 32.71143,34.54893c0.72217,1.25947 3.48926,5.78394 3.83057,7.0585c0.19629,1.37329 2.42578,5.44966 3.01904,6.929c0.43945,1.09644 0.83936,2.27256 1.23926,3.39902c0.16846,0.47402 0.65039,1.45503 0.55957,1.81479l-0.36475,-0.06211c-1.12646,-2.37905 -2.09326,-5.52422 -3.26953,-8.11392l-0.29297,0.0561c-2.34375,-4.97227 -4.01074,-8.06265 -6.8877,-12.79526c-1.00781,-2.90024 -9.8877,-14.20679 -12.36621,-16.37329c-1.04883,0.60352 -1.61865,0.05142 -2.78174,1.12734c0.02637,0.675 1.18506,1.42295 1.52783,2.49097c-0.80127,-0.75073 -1.40479,-1.40068 -2.146,-2.21484c-1.10156,-1.2709 -2.06396,-1.90547 -3.30762,-2.98535c-1.37402,-1.19414 -2.67041,-2.4145 -4.07959,-3.58374l-0.26953,0.12319c-2.05957,-1.71489 -4.15723,-3.38247 -6.29297,-5.00112c-18.76465,-14.06895 -41.85937,-21.1311 -65.28354,-19.96304c-4.44346,0.19072 -8.00391,0.65156 -12.36138,1.27764l-0.02549,-0.26865c-0.67998,-0.04849 -1.11533,0.26045 -1.77495,0.16274l-0.19087,0.22339c-1.40757,-0.07163 -3.41543,0.78208 -4.91221,0.50566c-0.39331,-0.07266 -0.24141,-0.71411 -0.34673,-0.85605c-0.78223,-1.05483 -1.04546,-0.25342 -1.92041,-1.67856c0.02563,-0.2105 0.02754,-0.40093 0.01875,-0.61187c-0.59561,0.56279 -3.60864,1.04956 -4.43804,0.83525c-5.57271,1.60298 -10.17656,3.46392 -15.45308,5.88853c-1.17026,0.53774 -4.20776,2.22642 -5.0335,2.48159c1.40786,-1.78022 14.95151,-6.71997 15.10049,-7.07388c-1.48315,0.16846 -0.71455,-0.02959 -1.65571,-0.93545c-0.34995,-0.02168 -1.99248,0.92476 -2.82773,1.05967z" fill="url(#color-25)"/><path d="M109.39995,48.34731c3.74502,-1.72778 9.69141,-3.43374 13.66934,-4.43921c21.41807,-5.52715 44.01519,-4.36714 64.75444,3.32388c3.22705,1.18931 7.76953,3.13022 10.78857,4.7792c-0.51855,0.11938 -7.03418,-3.13271 -9.11719,-3.51343c-0.15234,-0.23203 -0.24756,-0.36899 -0.45996,-0.54697c-0.56396,0.00103 -0.85547,0.27642 -1.3374,0.59063l-1.6875,-0.28271l0.00293,0.17051c0.68262,0.44487 5.09033,2.10996 6.2373,2.56641c2.92383,1.16382 16.35938,8.30918 17.521,10.06011c-0.40137,-0.14297 -3.29736,-2.01416 -3.80566,-2.33555c-2.29687,-1.45488 -4.5,-2.78364 -6.90234,-4.06934c-19.36963,-10.40889 -41.56641,-14.32852 -63.32915,-11.18262c-2.85776,0.42319 -7.61733,1.17524 -10.36157,2.00596l-0.13184,0.21943l-1.39644,0.34512c-0.07075,0.18691 -0.08452,0.11147 -0.04072,0.22646c-0.59561,0.56279 -3.60864,1.04956 -4.43804,0.83525c-5.57271,1.60298 -10.17656,3.46392 -15.45308,5.88853c-1.17026,0.53774 -4.20776,2.22642 -5.0335,2.48159c1.40786,-1.78022 14.95151,-6.71997 15.10049,-7.07388c-1.48315,0.16846 -0.71455,-0.02959 -1.65571,-0.93545c-0.34995,-0.02168 -1.99248,0.92476 -2.82773,1.05967z" fill="#1163ba"/><path d="M119.36572,47.10044c1.21816,-0.42905 4.83003,-1.48301 6.00703,-1.62627l-0.13184,0.21943l-1.39644,0.34512c-0.07075,0.18691 -0.08452,0.11147 -0.04072,0.22646c-0.59561,0.56279 -3.60864,1.04956 -4.43804,0.83525z" fill="#2f89dd"/><path d="M123.80376,46.26519c0.00879,0.21094 0.00688,0.40137 -0.01875,0.61187c0.87495,1.42515 1.13818,0.62373 1.92041,1.67856c0.10532,0.14194 -0.04658,0.7834 0.34673,0.85605c1.49678,0.27642 3.50464,-0.57729 4.91221,-0.50566l0.19087,-0.22339c0.65962,0.09771 1.09497,-0.21123 1.77495,-0.16274l0.02549,0.26865c-4.1521,0.76934 -7.85303,1.53618 -11.91284,2.75142c-19.43628,5.93306 -36.71982,17.40703 -49.73276,33.01582c-2.35474,2.80605 -4.56841,5.72725 -6.63325,8.75288c-1.20396,0.53877 -1.20073,2.12388 -2.35137,2.9064c-0.01187,-0.47563 1.54951,-3.08892 2.00566,-3.34395c0.06255,-0.30264 0.10474,-0.49805 0.1437,-0.80537l-0.21768,-0.13975c-1.44126,0.721 -1.23647,1.94048 -3.10342,0.84946c0.43418,-0.61963 1.49795,-2.69517 1.66992,-3.39565c-0.73799,0.44707 -1.70244,2.41113 -2.26304,3.27026c-6.1752,9.41631 -10.69365,19.82007 -13.35967,30.76055c-1.19824,4.93535 -2.0606,9.94629 -2.5812,14.9981c-0.19395,1.74873 -0.50522,4.89507 -0.4147,6.60234c-0.13418,0.52017 -0.14692,1.08765 -0.18237,1.62861c-0.3019,-0.31787 -0.28711,-0.48574 -0.42905,-0.93794l-0.1021,0.19775l0.0479,-0.21885l-0.19937,0.14531c-0.11367,-0.49761 0.00937,-2.1687 0.03867,-2.78804c0.21035,-5.05591 0.80229,-10.08867 1.771,-15.05537c4.1436,-20.57534 14.37612,-39.43008 29.36968,-54.11689c5.53564,-5.50928 11.20327,-10.08765 17.72607,-14.41479c2.0332,-1.34883 4.39556,-2.43882 6.40913,-3.82383l0.22456,-0.15645c0.82573,-0.25518 3.86323,-1.94385 5.0335,-2.48159c5.27651,-2.42461 9.88037,-4.28555 15.45308,-5.88853c0.82939,0.21431 3.84243,-0.27246 4.43804,-0.83525z" fill="url(#color-26)"/><path d="M64.3311,92.87109c0.31772,0.11821 0.3917,-0.25049 0.63237,-0.53848c0.97705,-1.16938 5.18071,-7.50234 6.34658,-7.77686c-2.35474,2.80605 -4.56841,5.72725 -6.63325,8.75288c-1.20396,0.53877 -1.20073,2.12388 -2.35137,2.9064c-0.01187,-0.47563 1.54951,-3.08892 2.00566,-3.34395z" fill="#02509d"/><path d="M246.31348,102.66313c1.02393,1.73701 2.47266,5.13721 3.26514,7.04897c5.75537,14.26963 8.1958,29.66016 7.13525,45.01055c-0.20801,-0.69141 0.12451,-7.1001 0.0249,-8.74614l-0.1875,0.00161c-0.65039,0.90615 -0.21973,5.23477 -0.37793,6.68643l-0.14941,-0.05127c0.42773,-17.21294 -2.1709,-30.22544 -8.81982,-45.92725l0.29297,-0.0561c1.17627,2.5897 2.14307,5.73486 3.26953,8.11392l0.36475,0.06211c0.09082,-0.35977 -0.39111,-1.34077 -0.55957,-1.81479c-0.3999,-1.12646 -0.7998,-2.30259 -1.23926,-3.39902c-0.59326,-1.47935 -2.82275,-5.55571 -3.01904,-6.929z" fill="url(#color-27)"/><path d="M176.26172,250.18506l-0.0293,0.1582l-0.24316,0.11865c-2.89453,1.42676 -6.38379,1.63037 -9.55664,2.2998c-1.0459,0.22119 -2.47705,-0.01611 -3.55371,0.13037c-2.84473,0.0542 -8.21924,1.29199 -10.8999,0.68994c8.11816,-0.17871 16.37842,-1.61572 24.28271,-3.39697z" fill="#02509d"/></g></svg></svg>